<?xml version="1.0" encoding="UTF-8" standalone="no"?>
<!DOCTYPE svg PUBLIC "-//W3C//DTD SVG 1.1//EN"
 "http://www.w3.org/Graphics/SVG/1.1/DTD/svg11.dtd">
<!-- Generated by graphviz version 2.40.1 (20161225.0304)
 -->
<!-- Title: dependencies Pages: 1 -->
<svg width="1171pt" height="284pt"
 viewBox="0.00 0.00 1171.00 284.00" xmlns="http://www.w3.org/2000/svg" xmlns:xlink="http://www.w3.org/1999/xlink">
<g id="graph0" class="graph" transform="scale(1 1) rotate(0) translate(4 280)">
<title>dependencies</title>
<polygon fill="#ffffff" stroke="transparent" points="-4,4 -4,-280 1167,-280 1167,4 -4,4"/>
<text text-anchor="start" x="560.5091" y="-42.4" font-family="sans-serif" font-weight="bold" font-size="14.00" fill="#000000">Legend</text>
<polygon fill="#ffffb3" stroke="transparent" points="347.5,-10 347.5,-30 367.5,-30 367.5,-10 347.5,-10"/>
<text text-anchor="start" x="371.129" y="-15.4" font-family="sans-serif" font-size="14.00" fill="#000000"> &#160;Declarations</text>
<polygon fill="#8dd3c7" stroke="transparent" points="460.5,-10 460.5,-30 480.5,-30 480.5,-10 460.5,-10"/>
<text text-anchor="start" x="484.2251" y="-15.4" font-family="sans-serif" font-size="14.00" fill="#000000"> &#160;Module</text>
<polygon fill="#80b1d3" stroke="transparent" points="546.5,-10 546.5,-30 566.5,-30 566.5,-10 546.5,-10"/>
<text text-anchor="start" x="570.2812" y="-15.4" font-family="sans-serif" font-size="14.00" fill="#000000"> &#160;Bootstrap</text>
<polygon fill="#fdb462" stroke="transparent" points="643.5,-10 643.5,-30 663.5,-30 663.5,-10 643.5,-10"/>
<text text-anchor="start" x="667.1732" y="-15.4" font-family="sans-serif" font-size="14.00" fill="#000000"> &#160;Providers</text>
<polygon fill="#fb8072" stroke="transparent" points="739.5,-10 739.5,-30 759.5,-30 759.5,-10 739.5,-10"/>
<text text-anchor="start" x="763.2258" y="-15.4" font-family="sans-serif" font-size="14.00" fill="#000000"> &#160;Exports</text>
<g id="clust1" class="cluster">
<title>cluster_CoreModule</title>
<polygon fill="none" stroke="#000000" stroke-dasharray="1,5" points="8,-70 8,-268 1155,-268 1155,-70 8,-70"/>
</g>
<g id="clust2" class="cluster">
<title>cluster_CoreModule_declarations</title>
<polygon fill="none" stroke="#000000" points="691,-78 691,-130 1137,-130 1137,-78 691,-78"/>
</g>
<g id="clust6" class="cluster">
<title>cluster_CoreModule_imports</title>
<polygon fill="none" stroke="#000000" points="27,-78 27,-130 683,-130 683,-78 27,-78"/>
</g>
<g id="clust7" class="cluster">
<title>cluster_CoreModule_exports</title>
<polygon fill="none" stroke="#000000" points="16,-208 16,-260 1147,-260 1147,-208 16,-208"/>
</g>
<!-- SidebarComponent -->
<g id="node1" class="node">
<title>SidebarComponent</title>
<polygon fill="#ffffb3" stroke="#000000" points="1129.0954,-122 1004.9046,-122 1004.9046,-86 1129.0954,-86 1129.0954,-122"/>
<text text-anchor="middle" x="1067" y="-99.8" font-family="Times,serif" font-size="14.00" fill="#000000">SidebarComponent</text>
</g>
<!-- CoreModule -->
<g id="node4" class="node">
<title>CoreModule</title>
<polygon fill="#8dd3c7" stroke="#000000" points="628.2619,-187 625.2619,-191 604.2619,-191 601.2619,-187 541.7381,-187 541.7381,-151 628.2619,-151 628.2619,-187"/>
<text text-anchor="middle" x="585" y="-164.8" font-family="Times,serif" font-size="14.00" fill="#000000">CoreModule</text>
</g>
<!-- SidebarComponent&#45;&gt;CoreModule -->
<g id="edge1" class="edge">
<title>SidebarComponent&#45;&gt;CoreModule</title>
<path fill="none" stroke="#000000" d="M1019.6704,-122.2222C1019.6704,-140.8285 1019.6704,-167 1019.6704,-167 1019.6704,-167 638.267,-167 638.267,-167"/>
<polygon fill="#000000" stroke="#000000" points="638.267,-163.5001 628.267,-167 638.267,-170.5001 638.267,-163.5001"/>
</g>
<!-- NavigationComponent -->
<g id="node2" class="node">
<title>NavigationComponent</title>
<polygon fill="#ffffb3" stroke="#000000" points="986.5407,-122 843.4593,-122 843.4593,-86 986.5407,-86 986.5407,-122"/>
<text text-anchor="middle" x="915" y="-99.8" font-family="Times,serif" font-size="14.00" fill="#000000">NavigationComponent</text>
</g>
<!-- NavigationComponent&#45;&gt;CoreModule -->
<g id="edge2" class="edge">
<title>NavigationComponent&#45;&gt;CoreModule</title>
<path fill="none" stroke="#000000" d="M867.3221,-122.0336C867.3221,-139.0597 867.3221,-162 867.3221,-162 867.3221,-162 638.4941,-162 638.4941,-162"/>
<polygon fill="#000000" stroke="#000000" points="638.4941,-158.5001 628.4941,-162 638.4941,-165.5001 638.4941,-158.5001"/>
</g>
<!-- ToolbarComponent -->
<g id="node3" class="node">
<title>ToolbarComponent</title>
<polygon fill="#ffffb3" stroke="#000000" points="824.6513,-122 699.3487,-122 699.3487,-86 824.6513,-86 824.6513,-122"/>
<text text-anchor="middle" x="762" y="-99.8" font-family="Times,serif" font-size="14.00" fill="#000000">ToolbarComponent</text>
</g>
<!-- ToolbarComponent&#45;&gt;CoreModule -->
<g id="edge3" class="edge">
<title>ToolbarComponent&#45;&gt;CoreModule</title>
<path fill="none" stroke="#000000" d="M737.0384,-122.2396C737.0384,-137.5706 737.0384,-157 737.0384,-157 737.0384,-157 638.5681,-157 638.5681,-157"/>
<polygon fill="#000000" stroke="#000000" points="638.5681,-153.5001 628.5681,-157 638.5681,-160.5001 638.5681,-153.5001"/>
</g>
<!-- MaterialModule  -->
<g id="node10" class="node">
<title>MaterialModule </title>
<polygon fill="#fb8072" stroke="#000000" points="1139.4716,-252 1028.5284,-252 1028.5284,-216 1139.4716,-216 1139.4716,-252"/>
<text text-anchor="middle" x="1084" y="-229.8" font-family="Times,serif" font-size="14.00" fill="#000000">MaterialModule </text>
</g>
<!-- CoreModule&#45;&gt;MaterialModule  -->
<g id="edge9" class="edge">
<title>CoreModule&#45;&gt;MaterialModule </title>
<path fill="none" stroke="#000000" stroke-dasharray="5,2" d="M628.398,-172C748.9202,-172 1078.9062,-172 1078.9062,-172 1078.9062,-172 1078.9062,-205.7333 1078.9062,-205.7333"/>
<polygon fill="#000000" stroke="#000000" points="1075.4063,-205.7333 1078.9062,-215.7333 1082.4063,-205.7333 1075.4063,-205.7333"/>
</g>
<!-- RouterModule  -->
<g id="node11" class="node">
<title>RouterModule </title>
<polygon fill="#fb8072" stroke="#000000" points="1010.6523,-252 909.3477,-252 909.3477,-216 1010.6523,-216 1010.6523,-252"/>
<text text-anchor="middle" x="960" y="-229.8" font-family="Times,serif" font-size="14.00" fill="#000000">RouterModule </text>
</g>
<!-- CoreModule&#45;&gt;RouterModule  -->
<g id="edge10" class="edge">
<title>CoreModule&#45;&gt;RouterModule </title>
<path fill="none" stroke="#000000" stroke-dasharray="5,2" d="M628.4373,-177C724.8149,-177 948.097,-177 948.097,-177 948.097,-177 948.097,-205.9648 948.097,-205.9648"/>
<polygon fill="#000000" stroke="#000000" points="944.597,-205.9648 948.097,-215.9648 951.597,-205.9649 944.597,-205.9648"/>
</g>
<!-- FormsModule  -->
<g id="node12" class="node">
<title>FormsModule </title>
<polygon fill="#fb8072" stroke="#000000" points="891.3283,-252 792.6717,-252 792.6717,-216 891.3283,-216 891.3283,-252"/>
<text text-anchor="middle" x="842" y="-229.8" font-family="Times,serif" font-size="14.00" fill="#000000">FormsModule </text>
</g>
<!-- CoreModule&#45;&gt;FormsModule  -->
<g id="edge11" class="edge">
<title>CoreModule&#45;&gt;FormsModule </title>
<path fill="none" stroke="#000000" stroke-dasharray="5,2" d="M628.398,-182C693.4528,-182 808.7057,-182 808.7057,-182 808.7057,-182 808.7057,-205.8129 808.7057,-205.8129"/>
<polygon fill="#000000" stroke="#000000" points="805.2057,-205.8129 808.7057,-215.8129 812.2057,-205.813 805.2057,-205.8129"/>
</g>
<!-- ReactiveFormsModule  -->
<g id="node13" class="node">
<title>ReactiveFormsModule </title>
<polygon fill="#fb8072" stroke="#000000" points="774.8045,-252 627.1955,-252 627.1955,-216 774.8045,-216 774.8045,-252"/>
<text text-anchor="middle" x="701" y="-229.8" font-family="Times,serif" font-size="14.00" fill="#000000">ReactiveFormsModule </text>
</g>
<!-- CoreModule&#45;&gt;ReactiveFormsModule  -->
<g id="edge12" class="edge">
<title>CoreModule&#45;&gt;ReactiveFormsModule </title>
<path fill="none" stroke="#000000" stroke-dasharray="5,2" d="M617.9478,-187.1061C617.9478,-206.3391 617.9478,-234 617.9478,-234 617.9478,-234 618.8683,-234 618.8683,-234"/>
<polygon fill="#000000" stroke="#000000" points="617.1532,-237.5001 627.1531,-234 617.1531,-230.5001 617.1532,-237.5001"/>
</g>
<!-- FlexLayoutModule  -->
<g id="node14" class="node">
<title>FlexLayoutModule </title>
<polygon fill="#fb8072" stroke="#000000" points="608.596,-252 481.404,-252 481.404,-216 608.596,-216 608.596,-252"/>
<text text-anchor="middle" x="545" y="-229.8" font-family="Times,serif" font-size="14.00" fill="#000000">FlexLayoutModule </text>
</g>
<!-- CoreModule&#45;&gt;FlexLayoutModule  -->
<g id="edge13" class="edge">
<title>CoreModule&#45;&gt;FlexLayoutModule </title>
<path fill="none" stroke="#000000" stroke-dasharray="5,2" d="M575.2085,-187.1061C575.2085,-187.1061 575.2085,-205.991 575.2085,-205.991"/>
<polygon fill="#000000" stroke="#000000" points="571.7085,-205.9909 575.2085,-215.991 578.7085,-205.991 571.7085,-205.9909"/>
</g>
<!-- NavigationComponent  -->
<g id="node15" class="node">
<title>NavigationComponent </title>
<polygon fill="#fb8072" stroke="#000000" points="463.54,-252 316.46,-252 316.46,-216 463.54,-216 463.54,-252"/>
<text text-anchor="middle" x="390" y="-229.8" font-family="Times,serif" font-size="14.00" fill="#000000">NavigationComponent </text>
</g>
<!-- CoreModule&#45;&gt;NavigationComponent  -->
<g id="edge14" class="edge">
<title>CoreModule&#45;&gt;NavigationComponent </title>
<path fill="none" stroke="#000000" stroke-dasharray="5,2" d="M541.6549,-182C504.869,-182 458.0174,-182 458.0174,-182 458.0174,-182 458.0174,-205.8129 458.0174,-205.8129"/>
<polygon fill="#000000" stroke="#000000" points="454.5174,-205.8129 458.0174,-215.8129 461.5174,-205.813 454.5174,-205.8129"/>
</g>
<!-- ToolbarComponent  -->
<g id="node16" class="node">
<title>ToolbarComponent </title>
<polygon fill="#fb8072" stroke="#000000" points="298.6509,-252 169.3491,-252 169.3491,-216 298.6509,-216 298.6509,-252"/>
<text text-anchor="middle" x="234" y="-229.8" font-family="Times,serif" font-size="14.00" fill="#000000">ToolbarComponent </text>
</g>
<!-- CoreModule&#45;&gt;ToolbarComponent  -->
<g id="edge15" class="edge">
<title>CoreModule&#45;&gt;ToolbarComponent </title>
<path fill="none" stroke="#000000" stroke-dasharray="5,2" d="M541.7179,-177C448.6211,-177 237.7116,-177 237.7116,-177 237.7116,-177 237.7116,-205.9648 237.7116,-205.9648"/>
<polygon fill="#000000" stroke="#000000" points="234.2115,-205.9649 237.7116,-215.9648 241.2115,-205.9648 234.2115,-205.9649"/>
</g>
<!-- SidebarComponent  -->
<g id="node17" class="node">
<title>SidebarComponent </title>
<polygon fill="#fb8072" stroke="#000000" points="151.596,-252 24.404,-252 24.404,-216 151.596,-216 151.596,-252"/>
<text text-anchor="middle" x="88" y="-229.8" font-family="Times,serif" font-size="14.00" fill="#000000">SidebarComponent </text>
</g>
<!-- CoreModule&#45;&gt;SidebarComponent  -->
<g id="edge16" class="edge">
<title>CoreModule&#45;&gt;SidebarComponent </title>
<path fill="none" stroke="#000000" stroke-dasharray="5,2" d="M541.3716,-172C421.0525,-172 93.375,-172 93.375,-172 93.375,-172 93.375,-205.7333 93.375,-205.7333"/>
<polygon fill="#000000" stroke="#000000" points="89.8751,-205.7333 93.375,-215.7333 96.8751,-205.7333 89.8751,-205.7333"/>
</g>
<!-- RouterModule -->
<g id="node5" class="node">
<title>RouterModule</title>
<polygon fill="#8dd3c7" stroke="#000000" points="674.6528,-122 671.6528,-126 650.6528,-126 647.6528,-122 577.3472,-122 577.3472,-86 674.6528,-86 674.6528,-122"/>
<text text-anchor="middle" x="626" y="-99.8" font-family="Times,serif" font-size="14.00" fill="#000000">RouterModule</text>
</g>
<!-- RouterModule&#45;&gt;CoreModule -->
<g id="edge4" class="edge">
<title>RouterModule&#45;&gt;CoreModule</title>
<path fill="none" stroke="#000000" d="M602.7774,-122.1061C602.7774,-122.1061 602.7774,-140.991 602.7774,-140.991"/>
<polygon fill="#000000" stroke="#000000" points="599.2774,-140.9909 602.7774,-150.991 606.2774,-140.991 599.2774,-140.9909"/>
</g>
<!-- MaterialModule -->
<g id="node6" class="node">
<title>MaterialModule</title>
<polygon fill="#8dd3c7" stroke="#000000" points="559.4706,-122 556.4706,-126 535.4706,-126 532.4706,-122 452.5294,-122 452.5294,-86 559.4706,-86 559.4706,-122"/>
<text text-anchor="middle" x="506" y="-99.8" font-family="Times,serif" font-size="14.00" fill="#000000">MaterialModule</text>
</g>
<!-- MaterialModule&#45;&gt;CoreModule -->
<g id="edge5" class="edge">
<title>MaterialModule&#45;&gt;CoreModule</title>
<path fill="none" stroke="#000000" d="M550.5523,-122.1061C550.5523,-122.1061 550.5523,-140.991 550.5523,-140.991"/>
<polygon fill="#000000" stroke="#000000" points="547.0523,-140.9909 550.5523,-150.991 554.0523,-140.991 547.0523,-140.9909"/>
</g>
<!-- FormsModule -->
<g id="node7" class="node">
<title>FormsModule</title>
<polygon fill="#8dd3c7" stroke="#000000" points="434.8288,-122 431.8288,-126 410.8288,-126 407.8288,-122 339.1712,-122 339.1712,-86 434.8288,-86 434.8288,-122"/>
<text text-anchor="middle" x="387" y="-99.8" font-family="Times,serif" font-size="14.00" fill="#000000">FormsModule</text>
</g>
<!-- FormsModule&#45;&gt;CoreModule -->
<g id="edge6" class="edge">
<title>FormsModule&#45;&gt;CoreModule</title>
<path fill="none" stroke="#000000" d="M387,-122.2396C387,-137.5706 387,-157 387,-157 387,-157 531.5481,-157 531.5481,-157"/>
<polygon fill="#000000" stroke="#000000" points="531.5481,-160.5001 541.5481,-157 531.548,-153.5001 531.5481,-160.5001"/>
</g>
<!-- ReactiveFormsModule -->
<g id="node8" class="node">
<title>ReactiveFormsModule</title>
<polygon fill="#8dd3c7" stroke="#000000" points="321.3047,-122 318.3047,-126 297.3047,-126 294.3047,-122 176.6953,-122 176.6953,-86 321.3047,-86 321.3047,-122"/>
<text text-anchor="middle" x="249" y="-99.8" font-family="Times,serif" font-size="14.00" fill="#000000">ReactiveFormsModule</text>
</g>
<!-- ReactiveFormsModule&#45;&gt;CoreModule -->
<g id="edge7" class="edge">
<title>ReactiveFormsModule&#45;&gt;CoreModule</title>
<path fill="none" stroke="#000000" d="M307.5277,-122.0336C307.5277,-139.0597 307.5277,-162 307.5277,-162 307.5277,-162 531.645,-162 531.645,-162"/>
<polygon fill="#000000" stroke="#000000" points="531.645,-165.5001 541.645,-162 531.6449,-158.5001 531.645,-165.5001"/>
</g>
<!-- FlexLayoutModule -->
<g id="node9" class="node">
<title>FlexLayoutModule</title>
<polygon fill="#8dd3c7" stroke="#000000" points="159.0954,-122 156.0954,-126 135.0954,-126 132.0954,-122 34.9046,-122 34.9046,-86 159.0954,-86 159.0954,-122"/>
<text text-anchor="middle" x="97" y="-99.8" font-family="Times,serif" font-size="14.00" fill="#000000">FlexLayoutModule</text>
</g>
<!-- FlexLayoutModule&#45;&gt;CoreModule -->
<g id="edge8" class="edge">
<title>FlexLayoutModule&#45;&gt;CoreModule</title>
<path fill="none" stroke="#000000" d="M155.4227,-122.2222C155.4227,-140.8285 155.4227,-167 155.4227,-167 155.4227,-167 531.4458,-167 531.4458,-167"/>
<polygon fill="#000000" stroke="#000000" points="531.4458,-170.5001 541.4458,-167 531.4458,-163.5001 531.4458,-170.5001"/>
</g>
</g>
</svg>
