<?xml version="1.0" encoding="UTF-8" standalone="no"?>
<!DOCTYPE svg PUBLIC "-//W3C//DTD SVG 1.1//EN"
 "http://www.w3.org/Graphics/SVG/1.1/DTD/svg11.dtd">
<!-- Generated by graphviz version 2.40.1 (20161225.0304)
 -->
<!-- Title: dependencies Pages: 1 -->
<svg width="4462pt" height="284pt"
 viewBox="0.00 0.00 4462.00 284.00" xmlns="http://www.w3.org/2000/svg" xmlns:xlink="http://www.w3.org/1999/xlink">
<g id="graph0" class="graph" transform="scale(1 1) rotate(0) translate(4 280)">
<title>dependencies</title>
<polygon fill="#ffffff" stroke="transparent" points="-4,4 -4,-280 4458,-280 4458,4 -4,4"/>
<text text-anchor="start" x="2206.0091" y="-42.4" font-family="sans-serif" font-weight="bold" font-size="14.00" fill="#000000">Legend</text>
<polygon fill="#ffffb3" stroke="transparent" points="1993,-10 1993,-30 2013,-30 2013,-10 1993,-10"/>
<text text-anchor="start" x="2016.629" y="-15.4" font-family="sans-serif" font-size="14.00" fill="#000000"> &#160;Declarations</text>
<polygon fill="#8dd3c7" stroke="transparent" points="2106,-10 2106,-30 2126,-30 2126,-10 2106,-10"/>
<text text-anchor="start" x="2129.7251" y="-15.4" font-family="sans-serif" font-size="14.00" fill="#000000"> &#160;Module</text>
<polygon fill="#80b1d3" stroke="transparent" points="2192,-10 2192,-30 2212,-30 2212,-10 2192,-10"/>
<text text-anchor="start" x="2215.7812" y="-15.4" font-family="sans-serif" font-size="14.00" fill="#000000"> &#160;Bootstrap</text>
<polygon fill="#fdb462" stroke="transparent" points="2289,-10 2289,-30 2309,-30 2309,-10 2289,-10"/>
<text text-anchor="start" x="2312.6732" y="-15.4" font-family="sans-serif" font-size="14.00" fill="#000000"> &#160;Providers</text>
<polygon fill="#fb8072" stroke="transparent" points="2385,-10 2385,-30 2405,-30 2405,-10 2385,-10"/>
<text text-anchor="start" x="2408.7258" y="-15.4" font-family="sans-serif" font-size="14.00" fill="#000000"> &#160;Exports</text>
<g id="clust1" class="cluster">
<title>cluster_SharedModule</title>
<polygon fill="none" stroke="#000000" stroke-dasharray="1,5" points="8,-70 8,-268 4446,-268 4446,-70 8,-70"/>
</g>
<g id="clust2" class="cluster">
<title>cluster_SharedModule_declarations</title>
<polygon fill="none" stroke="#000000" points="632,-78 632,-130 4438,-130 4438,-78 632,-78"/>
</g>
<g id="clust25" class="cluster">
<title>cluster_SharedModule_imports</title>
<polygon fill="none" stroke="#000000" points="16,-78 16,-130 624,-130 624,-78 16,-78"/>
</g>
<g id="clust26" class="cluster">
<title>cluster_SharedModule_exports</title>
<polygon fill="none" stroke="#000000" points="1105,-208 1105,-260 3224,-260 3224,-208 1105,-208"/>
</g>
<!-- CustomerAutocompleteComponent -->
<g id="node1" class="node">
<title>CustomerAutocompleteComponent</title>
<polygon fill="#ffffb3" stroke="#000000" points="4429.5828,-122 4214.4172,-122 4214.4172,-86 4429.5828,-86 4429.5828,-122"/>
<text text-anchor="middle" x="4322" y="-99.8" font-family="Times,serif" font-size="14.00" fill="#000000">CustomerAutocompleteComponent</text>
</g>
<!-- SharedModule -->
<g id="node23" class="node">
<title>SharedModule</title>
<polygon fill="#8dd3c7" stroke="#000000" points="2153.4231,-187 2150.4231,-191 2129.4231,-191 2126.4231,-187 2054.5769,-187 2054.5769,-151 2153.4231,-151 2153.4231,-187"/>
<text text-anchor="middle" x="2104" y="-164.8" font-family="Times,serif" font-size="14.00" fill="#000000">SharedModule</text>
</g>
<!-- CustomerAutocompleteComponent&#45;&gt;SharedModule -->
<g id="edge1" class="edge">
<title>CustomerAutocompleteComponent&#45;&gt;SharedModule</title>
<path fill="none" stroke="#000000" d="M4322,-122.2843C4322,-143.3211 4322,-175 4322,-175 4322,-175 2163.4359,-175 2163.4359,-175"/>
<polygon fill="#000000" stroke="#000000" points="2163.4359,-171.5001 2153.4359,-175 2163.4358,-178.5001 2163.4359,-171.5001"/>
</g>
<!-- SpinnerComponent -->
<g id="node2" class="node">
<title>SpinnerComponent</title>
<polygon fill="#ffffb3" stroke="#000000" points="4196.3809,-122 4071.6191,-122 4071.6191,-86 4196.3809,-86 4196.3809,-122"/>
<text text-anchor="middle" x="4134" y="-99.8" font-family="Times,serif" font-size="14.00" fill="#000000">SpinnerComponent</text>
</g>
<!-- SpinnerComponent&#45;&gt;SharedModule -->
<g id="edge2" class="edge">
<title>SpinnerComponent&#45;&gt;SharedModule</title>
<path fill="none" stroke="#000000" d="M4134,-122.1289C4134,-142.5724 4134,-173 4134,-173 4134,-173 2163.4248,-173 2163.4248,-173"/>
<polygon fill="#000000" stroke="#000000" points="2163.4248,-169.5001 2153.4248,-173 2163.4247,-176.5001 2163.4248,-169.5001"/>
</g>
<!-- PrintSummaryBtnComponent -->
<g id="node3" class="node">
<title>PrintSummaryBtnComponent</title>
<polygon fill="#ffffb3" stroke="#000000" points="4053.7231,-122 3870.2769,-122 3870.2769,-86 4053.7231,-86 4053.7231,-122"/>
<text text-anchor="middle" x="3962" y="-99.8" font-family="Times,serif" font-size="14.00" fill="#000000">PrintSummaryBtnComponent</text>
</g>
<!-- PrintSummaryBtnComponent&#45;&gt;SharedModule -->
<g id="edge3" class="edge">
<title>PrintSummaryBtnComponent&#45;&gt;SharedModule</title>
<path fill="none" stroke="#000000" d="M3962,-122.308C3962,-142.1455 3962,-171 3962,-171 3962,-171 2163.2184,-171 2163.2184,-171"/>
<polygon fill="#000000" stroke="#000000" points="2163.2185,-167.5001 2153.2184,-171 2163.2184,-174.5001 2163.2185,-167.5001"/>
</g>
<!-- AddServiceBtnComponent -->
<g id="node4" class="node">
<title>AddServiceBtnComponent</title>
<polygon fill="#ffffb3" stroke="#000000" points="3852.6442,-122 3685.3558,-122 3685.3558,-86 3852.6442,-86 3852.6442,-122"/>
<text text-anchor="middle" x="3769" y="-99.8" font-family="Times,serif" font-size="14.00" fill="#000000">AddServiceBtnComponent</text>
</g>
<!-- AddServiceBtnComponent&#45;&gt;SharedModule -->
<g id="edge4" class="edge">
<title>AddServiceBtnComponent&#45;&gt;SharedModule</title>
<path fill="none" stroke="#000000" d="M3769,-122.1061C3769,-141.3391 3769,-169 3769,-169 3769,-169 2163.3784,-169 2163.3784,-169"/>
<polygon fill="#000000" stroke="#000000" points="2163.3784,-165.5001 2153.3784,-169 2163.3784,-172.5001 2163.3784,-165.5001"/>
</g>
<!-- TasksListComponent -->
<g id="node5" class="node">
<title>TasksListComponent</title>
<polygon fill="#ffffb3" stroke="#000000" points="3666.7674,-122 3531.2326,-122 3531.2326,-86 3666.7674,-86 3666.7674,-122"/>
<text text-anchor="middle" x="3599" y="-99.8" font-family="Times,serif" font-size="14.00" fill="#000000">TasksListComponent</text>
</g>
<!-- TasksListComponent&#45;&gt;SharedModule -->
<g id="edge5" class="edge">
<title>TasksListComponent&#45;&gt;SharedModule</title>
<path fill="none" stroke="#000000" d="M3599,-122.2222C3599,-140.8285 3599,-167 3599,-167 3599,-167 2163.3155,-167 2163.3155,-167"/>
<polygon fill="#000000" stroke="#000000" points="2163.3155,-163.5001 2153.3155,-167 2163.3155,-170.5001 2163.3155,-163.5001"/>
</g>
<!-- EventsListComponent -->
<g id="node6" class="node">
<title>EventsListComponent</title>
<polygon fill="#ffffb3" stroke="#000000" points="3513.7134,-122 3372.2866,-122 3372.2866,-86 3513.7134,-86 3513.7134,-122"/>
<text text-anchor="middle" x="3443" y="-99.8" font-family="Times,serif" font-size="14.00" fill="#000000">EventsListComponent</text>
</g>
<!-- EventsListComponent&#45;&gt;SharedModule -->
<g id="edge6" class="edge">
<title>EventsListComponent&#45;&gt;SharedModule</title>
<path fill="none" stroke="#000000" d="M3443,-122.302C3443,-140.2699 3443,-165 3443,-165 3443,-165 2163.2437,-165 2163.2437,-165"/>
<polygon fill="#000000" stroke="#000000" points="2163.2438,-161.5001 2153.2437,-165 2163.2437,-168.5001 2163.2438,-161.5001"/>
</g>
<!-- NotesListComponent -->
<g id="node7" class="node">
<title>NotesListComponent</title>
<polygon fill="#ffffb3" stroke="#000000" points="3354.7674,-122 3219.2326,-122 3219.2326,-86 3354.7674,-86 3354.7674,-122"/>
<text text-anchor="middle" x="3287" y="-99.8" font-family="Times,serif" font-size="14.00" fill="#000000">NotesListComponent</text>
</g>
<!-- NotesListComponent&#45;&gt;SharedModule -->
<g id="edge7" class="edge">
<title>NotesListComponent&#45;&gt;SharedModule</title>
<path fill="none" stroke="#000000" d="M3287,-122.0225C3287,-139.3734 3287,-163 3287,-163 3287,-163 2163.3259,-163 2163.3259,-163"/>
<polygon fill="#000000" stroke="#000000" points="2163.3259,-159.5001 2153.3259,-163 2163.3259,-166.5001 2163.3259,-159.5001"/>
</g>
<!-- ViewContactComponent -->
<g id="node8" class="node">
<title>ViewContactComponent</title>
<polygon fill="#ffffb3" stroke="#000000" points="3201.6979,-122 3046.3021,-122 3046.3021,-86 3201.6979,-86 3201.6979,-122"/>
<text text-anchor="middle" x="3124" y="-99.8" font-family="Times,serif" font-size="14.00" fill="#000000">ViewContactComponent</text>
</g>
<!-- ViewContactComponent&#45;&gt;SharedModule -->
<g id="edge8" class="edge">
<title>ViewContactComponent&#45;&gt;SharedModule</title>
<path fill="none" stroke="#000000" d="M3124,-122.0352C3124,-138.7344 3124,-161 3124,-161 3124,-161 2163.5414,-161 2163.5414,-161"/>
<polygon fill="#000000" stroke="#000000" points="2163.5415,-157.5001 2153.5414,-161 2163.5414,-164.5001 2163.5415,-157.5001"/>
</g>
<!-- ServicesListComponent -->
<g id="node9" class="node">
<title>ServicesListComponent</title>
<polygon fill="#ffffb3" stroke="#000000" points="3028.0337,-122 2877.9663,-122 2877.9663,-86 3028.0337,-86 3028.0337,-122"/>
<text text-anchor="middle" x="2953" y="-99.8" font-family="Times,serif" font-size="14.00" fill="#000000">ServicesListComponent</text>
</g>
<!-- ServicesListComponent&#45;&gt;SharedModule -->
<g id="edge9" class="edge">
<title>ServicesListComponent&#45;&gt;SharedModule</title>
<path fill="none" stroke="#000000" d="M2928.962,-122.0091C2928.962,-138.0494 2928.962,-159 2928.962,-159 2928.962,-159 2163.4405,-159 2163.4405,-159"/>
<polygon fill="#000000" stroke="#000000" points="2163.4405,-155.5001 2153.4405,-159 2163.4405,-162.5001 2163.4405,-155.5001"/>
</g>
<!-- ServiceFormDialogComponent -->
<g id="node10" class="node">
<title>ServiceFormDialogComponent</title>
<polygon fill="#ffffb3" stroke="#000000" points="2859.7464,-122 2668.2536,-122 2668.2536,-86 2859.7464,-86 2859.7464,-122"/>
<text text-anchor="middle" x="2764" y="-99.8" font-family="Times,serif" font-size="14.00" fill="#000000">ServiceFormDialogComponent</text>
</g>
<!-- ServiceFormDialogComponent&#45;&gt;SharedModule -->
<g id="edge10" class="edge">
<title>ServiceFormDialogComponent&#45;&gt;SharedModule</title>
<path fill="none" stroke="#000000" d="M2750.7442,-122.2396C2750.7442,-137.5706 2750.7442,-157 2750.7442,-157 2750.7442,-157 2163.4081,-157 2163.4081,-157"/>
<polygon fill="#000000" stroke="#000000" points="2163.4081,-153.5001 2153.4081,-157 2163.4081,-160.5001 2163.4081,-153.5001"/>
</g>
<!-- AddNoteBtnComponent -->
<g id="node11" class="node">
<title>AddNoteBtnComponent</title>
<polygon fill="#ffffb3" stroke="#000000" points="2650.378,-122 2497.622,-122 2497.622,-86 2650.378,-86 2650.378,-122"/>
<text text-anchor="middle" x="2574" y="-99.8" font-family="Times,serif" font-size="14.00" fill="#000000">AddNoteBtnComponent</text>
</g>
<!-- AddNoteBtnComponent&#45;&gt;SharedModule -->
<g id="edge11" class="edge">
<title>AddNoteBtnComponent&#45;&gt;SharedModule</title>
<path fill="none" stroke="#000000" d="M2563.0665,-122.1243C2563.0665,-136.7832 2563.0665,-155 2563.0665,-155 2563.0665,-155 2163.5643,-155 2163.5643,-155"/>
<polygon fill="#000000" stroke="#000000" points="2163.5644,-151.5001 2153.5643,-155 2163.5643,-158.5001 2163.5644,-151.5001"/>
</g>
<!-- NoteFormDialogComponent -->
<g id="node12" class="node">
<title>NoteFormDialogComponent</title>
<polygon fill="#ffffb3" stroke="#000000" points="2479.4804,-122 2302.5196,-122 2302.5196,-86 2479.4804,-86 2479.4804,-122"/>
<text text-anchor="middle" x="2391" y="-99.8" font-family="Times,serif" font-size="14.00" fill="#000000">NoteFormDialogComponent</text>
</g>
<!-- NoteFormDialogComponent&#45;&gt;SharedModule -->
<g id="edge12" class="edge">
<title>NoteFormDialogComponent&#45;&gt;SharedModule</title>
<path fill="none" stroke="#000000" d="M2370.8494,-122.2458C2370.8494,-136.1772 2370.8494,-153 2370.8494,-153 2370.8494,-153 2163.2553,-153 2163.2553,-153"/>
<polygon fill="#000000" stroke="#000000" points="2163.2553,-149.5001 2153.2553,-153 2163.2552,-156.5001 2163.2553,-149.5001"/>
</g>
<!-- TaskFormDialogComponent -->
<g id="node13" class="node">
<title>TaskFormDialogComponent</title>
<polygon fill="#ffffb3" stroke="#000000" points="2284.4804,-122 2107.5196,-122 2107.5196,-86 2284.4804,-86 2284.4804,-122"/>
<text text-anchor="middle" x="2196" y="-99.8" font-family="Times,serif" font-size="14.00" fill="#000000">TaskFormDialogComponent</text>
</g>
<!-- TaskFormDialogComponent&#45;&gt;SharedModule -->
<g id="edge13" class="edge">
<title>TaskFormDialogComponent&#45;&gt;SharedModule</title>
<path fill="none" stroke="#000000" d="M2130.3605,-122.1061C2130.3605,-122.1061 2130.3605,-140.991 2130.3605,-140.991"/>
<polygon fill="#000000" stroke="#000000" points="2126.8605,-140.9909 2130.3605,-150.991 2133.8605,-140.991 2126.8605,-140.9909"/>
</g>
<!-- AddTaskBtnComponent -->
<g id="node14" class="node">
<title>AddTaskBtnComponent</title>
<polygon fill="#ffffb3" stroke="#000000" points="2089.378,-122 1936.622,-122 1936.622,-86 2089.378,-86 2089.378,-122"/>
<text text-anchor="middle" x="2013" y="-99.8" font-family="Times,serif" font-size="14.00" fill="#000000">AddTaskBtnComponent</text>
</g>
<!-- AddTaskBtnComponent&#45;&gt;SharedModule -->
<g id="edge14" class="edge">
<title>AddTaskBtnComponent&#45;&gt;SharedModule</title>
<path fill="none" stroke="#000000" d="M2072.114,-122.1061C2072.114,-122.1061 2072.114,-140.991 2072.114,-140.991"/>
<polygon fill="#000000" stroke="#000000" points="2068.614,-140.9909 2072.114,-150.991 2075.614,-140.991 2068.614,-140.9909"/>
</g>
<!-- ColorPickerBtnsComponent -->
<g id="node15" class="node">
<title>ColorPickerBtnsComponent</title>
<polygon fill="#ffffb3" stroke="#000000" points="1918.1553,-122 1743.8447,-122 1743.8447,-86 1918.1553,-86 1918.1553,-122"/>
<text text-anchor="middle" x="1831" y="-99.8" font-family="Times,serif" font-size="14.00" fill="#000000">ColorPickerBtnsComponent</text>
</g>
<!-- ColorPickerBtnsComponent&#45;&gt;SharedModule -->
<g id="edge15" class="edge">
<title>ColorPickerBtnsComponent&#45;&gt;SharedModule</title>
<path fill="none" stroke="#000000" d="M1853.4855,-122.2458C1853.4855,-136.1772 1853.4855,-153 1853.4855,-153 1853.4855,-153 2044.5064,-153 2044.5064,-153"/>
<polygon fill="#000000" stroke="#000000" points="2044.5064,-156.5001 2054.5064,-153 2044.5064,-149.5001 2044.5064,-156.5001"/>
</g>
<!-- EditServiceComponent -->
<g id="node16" class="node">
<title>EditServiceComponent</title>
<polygon fill="#ffffb3" stroke="#000000" points="1725.1442,-122 1578.8558,-122 1578.8558,-86 1725.1442,-86 1725.1442,-122"/>
<text text-anchor="middle" x="1652" y="-99.8" font-family="Times,serif" font-size="14.00" fill="#000000">EditServiceComponent</text>
</g>
<!-- EditServiceComponent&#45;&gt;SharedModule -->
<g id="edge16" class="edge">
<title>EditServiceComponent&#45;&gt;SharedModule</title>
<path fill="none" stroke="#000000" d="M1678.3442,-122.1243C1678.3442,-136.7832 1678.3442,-155 1678.3442,-155 1678.3442,-155 2044.756,-155 2044.756,-155"/>
<polygon fill="#000000" stroke="#000000" points="2044.7561,-158.5001 2054.756,-155 2044.756,-151.5001 2044.7561,-158.5001"/>
</g>
<!-- EditNoteComponent -->
<g id="node17" class="node">
<title>EditNoteComponent</title>
<polygon fill="#ffffb3" stroke="#000000" points="1560.8781,-122 1429.1219,-122 1429.1219,-86 1560.8781,-86 1560.8781,-122"/>
<text text-anchor="middle" x="1495" y="-99.8" font-family="Times,serif" font-size="14.00" fill="#000000">EditNoteComponent</text>
</g>
<!-- EditNoteComponent&#45;&gt;SharedModule -->
<g id="edge17" class="edge">
<title>EditNoteComponent&#45;&gt;SharedModule</title>
<path fill="none" stroke="#000000" d="M1507.7951,-122.2396C1507.7951,-137.5706 1507.7951,-157 1507.7951,-157 1507.7951,-157 2044.7028,-157 2044.7028,-157"/>
<polygon fill="#000000" stroke="#000000" points="2044.7028,-160.5001 2054.7028,-157 2044.7028,-153.5001 2044.7028,-160.5001"/>
</g>
<!-- IconPickerBtnsComponent -->
<g id="node18" class="node">
<title>IconPickerBtnsComponent</title>
<polygon fill="#ffffb3" stroke="#000000" points="1410.6428,-122 1243.3572,-122 1243.3572,-86 1410.6428,-86 1410.6428,-122"/>
<text text-anchor="middle" x="1327" y="-99.8" font-family="Times,serif" font-size="14.00" fill="#000000">IconPickerBtnsComponent</text>
</g>
<!-- IconPickerBtnsComponent&#45;&gt;SharedModule -->
<g id="edge18" class="edge">
<title>IconPickerBtnsComponent&#45;&gt;SharedModule</title>
<path fill="none" stroke="#000000" d="M1346.9024,-122.0091C1346.9024,-138.0494 1346.9024,-159 1346.9024,-159 1346.9024,-159 2044.6168,-159 2044.6168,-159"/>
<polygon fill="#000000" stroke="#000000" points="2044.6168,-162.5001 2054.6168,-159 2044.6167,-155.5001 2044.6168,-162.5001"/>
</g>
<!-- NoteComponent -->
<g id="node19" class="node">
<title>NoteComponent</title>
<polygon fill="#ffffb3" stroke="#000000" points="1225.0452,-122 1116.9548,-122 1116.9548,-86 1225.0452,-86 1225.0452,-122"/>
<text text-anchor="middle" x="1171" y="-99.8" font-family="Times,serif" font-size="14.00" fill="#000000">NoteComponent</text>
</g>
<!-- NoteComponent&#45;&gt;SharedModule -->
<g id="edge19" class="edge">
<title>NoteComponent&#45;&gt;SharedModule</title>
<path fill="none" stroke="#000000" d="M1171,-122.0352C1171,-138.7344 1171,-161 1171,-161 1171,-161 2044.4966,-161 2044.4966,-161"/>
<polygon fill="#000000" stroke="#000000" points="2044.4966,-164.5001 2054.4966,-161 2044.4966,-157.5001 2044.4966,-164.5001"/>
</g>
<!-- TaskComponent -->
<g id="node20" class="node">
<title>TaskComponent</title>
<polygon fill="#ffffb3" stroke="#000000" points="1098.0452,-122 989.9548,-122 989.9548,-86 1098.0452,-86 1098.0452,-122"/>
<text text-anchor="middle" x="1044" y="-99.8" font-family="Times,serif" font-size="14.00" fill="#000000">TaskComponent</text>
</g>
<!-- TaskComponent&#45;&gt;SharedModule -->
<g id="edge20" class="edge">
<title>TaskComponent&#45;&gt;SharedModule</title>
<path fill="none" stroke="#000000" d="M1044,-122.0225C1044,-139.3734 1044,-163 1044,-163 1044,-163 2044.6484,-163 2044.6484,-163"/>
<polygon fill="#000000" stroke="#000000" points="2044.6484,-166.5001 2054.6484,-163 2044.6483,-159.5001 2044.6484,-166.5001"/>
</g>
<!-- RemoveBtnComponent -->
<g id="node21" class="node">
<title>RemoveBtnComponent</title>
<polygon fill="#ffffb3" stroke="#000000" points="972.2162,-122 823.7838,-122 823.7838,-86 972.2162,-86 972.2162,-122"/>
<text text-anchor="middle" x="898" y="-99.8" font-family="Times,serif" font-size="14.00" fill="#000000">RemoveBtnComponent</text>
</g>
<!-- RemoveBtnComponent&#45;&gt;SharedModule -->
<g id="edge21" class="edge">
<title>RemoveBtnComponent&#45;&gt;SharedModule</title>
<path fill="none" stroke="#000000" d="M898,-122.302C898,-140.2699 898,-165 898,-165 898,-165 2044.475,-165 2044.475,-165"/>
<polygon fill="#000000" stroke="#000000" points="2044.475,-168.5001 2054.475,-165 2044.475,-161.5001 2044.475,-168.5001"/>
</g>
<!-- RemoveDialogComponent -->
<g id="node22" class="node">
<title>RemoveDialogComponent</title>
<polygon fill="#ffffb3" stroke="#000000" points="806.0912,-122 639.9088,-122 639.9088,-86 806.0912,-86 806.0912,-122"/>
<text text-anchor="middle" x="723" y="-99.8" font-family="Times,serif" font-size="14.00" fill="#000000">RemoveDialogComponent</text>
</g>
<!-- RemoveDialogComponent&#45;&gt;SharedModule -->
<g id="edge22" class="edge">
<title>RemoveDialogComponent&#45;&gt;SharedModule</title>
<path fill="none" stroke="#000000" d="M723,-122.2222C723,-140.8285 723,-167 723,-167 723,-167 2044.4423,-167 2044.4423,-167"/>
<polygon fill="#000000" stroke="#000000" points="2044.4423,-170.5001 2054.4423,-167 2044.4423,-163.5001 2044.4423,-170.5001"/>
</g>
<!-- CustomerAutocompleteComponent  -->
<g id="node28" class="node">
<title>CustomerAutocompleteComponent </title>
<polygon fill="#fb8072" stroke="#000000" points="3216.0832,-252 2997.9168,-252 2997.9168,-216 3216.0832,-216 3216.0832,-252"/>
<text text-anchor="middle" x="3107" y="-229.8" font-family="Times,serif" font-size="14.00" fill="#000000">CustomerAutocompleteComponent </text>
</g>
<!-- SharedModule&#45;&gt;CustomerAutocompleteComponent  -->
<g id="edge27" class="edge">
<title>SharedModule&#45;&gt;CustomerAutocompleteComponent </title>
<path fill="none" stroke="#000000" stroke-dasharray="5,2" d="M2153.5166,-177C2343.202,-177 3012.9876,-177 3012.9876,-177 3012.9876,-177 3012.9876,-205.9648 3012.9876,-205.9648"/>
<polygon fill="#000000" stroke="#000000" points="3009.4876,-205.9648 3012.9876,-215.9648 3016.4876,-205.9649 3009.4876,-205.9648"/>
</g>
<!-- SpinnerComponent  -->
<g id="node29" class="node">
<title>SpinnerComponent </title>
<polygon fill="#fb8072" stroke="#000000" points="2980.3814,-252 2851.6186,-252 2851.6186,-216 2980.3814,-216 2980.3814,-252"/>
<text text-anchor="middle" x="2916" y="-229.8" font-family="Times,serif" font-size="14.00" fill="#000000">SpinnerComponent </text>
</g>
<!-- SharedModule&#45;&gt;SpinnerComponent  -->
<g id="edge28" class="edge">
<title>SharedModule&#45;&gt;SpinnerComponent </title>
<path fill="none" stroke="#000000" stroke-dasharray="5,2" d="M2153.3304,-179C2320.5949,-179 2855.8413,-179 2855.8413,-179 2855.8413,-179 2855.8413,-205.9909 2855.8413,-205.9909"/>
<polygon fill="#000000" stroke="#000000" points="2852.3414,-205.9909 2855.8413,-215.9909 2859.3414,-205.991 2852.3414,-205.9909"/>
</g>
<!-- PrintSummaryBtnComponent  -->
<g id="node30" class="node">
<title>PrintSummaryBtnComponent </title>
<polygon fill="#fb8072" stroke="#000000" points="2833.2232,-252 2646.7768,-252 2646.7768,-216 2833.2232,-216 2833.2232,-252"/>
<text text-anchor="middle" x="2740" y="-229.8" font-family="Times,serif" font-size="14.00" fill="#000000">PrintSummaryBtnComponent </text>
</g>
<!-- SharedModule&#45;&gt;PrintSummaryBtnComponent  -->
<g id="edge29" class="edge">
<title>SharedModule&#45;&gt;PrintSummaryBtnComponent </title>
<path fill="none" stroke="#000000" stroke-dasharray="5,2" d="M2153.2777,-181C2289.1762,-181 2659.2829,-181 2659.2829,-181 2659.2829,-181 2659.2829,-205.7604 2659.2829,-205.7604"/>
<polygon fill="#000000" stroke="#000000" points="2655.783,-205.7604 2659.2829,-215.7604 2662.783,-205.7604 2655.783,-205.7604"/>
</g>
<!-- AddServiceBtnComponent  -->
<g id="node31" class="node">
<title>AddServiceBtnComponent </title>
<polygon fill="#fb8072" stroke="#000000" points="2628.6439,-252 2457.3561,-252 2457.3561,-216 2628.6439,-216 2628.6439,-252"/>
<text text-anchor="middle" x="2543" y="-229.8" font-family="Times,serif" font-size="14.00" fill="#000000">AddServiceBtnComponent </text>
</g>
<!-- SharedModule&#45;&gt;AddServiceBtnComponent  -->
<g id="edge30" class="edge">
<title>SharedModule&#45;&gt;AddServiceBtnComponent </title>
<path fill="none" stroke="#000000" stroke-dasharray="5,2" d="M2153.5319,-183C2253.1818,-183 2468.4592,-183 2468.4592,-183 2468.4592,-183 2468.4592,-205.8757 2468.4592,-205.8757"/>
<polygon fill="#000000" stroke="#000000" points="2464.9592,-205.8757 2468.4592,-215.8757 2471.9592,-205.8757 2464.9592,-205.8757"/>
</g>
<!-- AddNoteBtnComponent  -->
<g id="node32" class="node">
<title>AddNoteBtnComponent </title>
<polygon fill="#fb8072" stroke="#000000" points="2439.3785,-252 2282.6215,-252 2282.6215,-216 2439.3785,-216 2439.3785,-252"/>
<text text-anchor="middle" x="2361" y="-229.8" font-family="Times,serif" font-size="14.00" fill="#000000">AddNoteBtnComponent </text>
</g>
<!-- SharedModule&#45;&gt;AddNoteBtnComponent  -->
<g id="edge31" class="edge">
<title>SharedModule&#45;&gt;AddNoteBtnComponent </title>
<path fill="none" stroke="#000000" stroke-dasharray="5,2" d="M2153.2942,-185C2209.4422,-185 2293.5,-185 2293.5,-185 2293.5,-185 2293.5,-205.7542 2293.5,-205.7542"/>
<polygon fill="#000000" stroke="#000000" points="2290.0001,-205.7542 2293.5,-215.7542 2297.0001,-205.7542 2290.0001,-205.7542"/>
</g>
<!-- AddTaskBtnComponent  -->
<g id="node33" class="node">
<title>AddTaskBtnComponent </title>
<polygon fill="#fb8072" stroke="#000000" points="2265.3785,-252 2108.6215,-252 2108.6215,-216 2265.3785,-216 2265.3785,-252"/>
<text text-anchor="middle" x="2187" y="-229.8" font-family="Times,serif" font-size="14.00" fill="#000000">AddTaskBtnComponent </text>
</g>
<!-- SharedModule&#45;&gt;AddTaskBtnComponent  -->
<g id="edge32" class="edge">
<title>SharedModule&#45;&gt;AddTaskBtnComponent </title>
<path fill="none" stroke="#000000" stroke-dasharray="5,2" d="M2131.0111,-187.1061C2131.0111,-187.1061 2131.0111,-205.991 2131.0111,-205.991"/>
<polygon fill="#000000" stroke="#000000" points="2127.5111,-205.9909 2131.0111,-215.991 2134.5111,-205.991 2127.5111,-205.9909"/>
</g>
<!-- TasksListComponent  -->
<g id="node34" class="node">
<title>TasksListComponent </title>
<polygon fill="#fb8072" stroke="#000000" points="2090.7675,-252 1951.2325,-252 1951.2325,-216 2090.7675,-216 2090.7675,-252"/>
<text text-anchor="middle" x="2021" y="-229.8" font-family="Times,serif" font-size="14.00" fill="#000000">TasksListComponent </text>
</g>
<!-- SharedModule&#45;&gt;TasksListComponent  -->
<g id="edge33" class="edge">
<title>SharedModule&#45;&gt;TasksListComponent </title>
<path fill="none" stroke="#000000" stroke-dasharray="5,2" d="M2072.7113,-187.1061C2072.7113,-187.1061 2072.7113,-205.991 2072.7113,-205.991"/>
<polygon fill="#000000" stroke="#000000" points="2069.2113,-205.9909 2072.7113,-215.991 2076.2113,-205.991 2069.2113,-205.9909"/>
</g>
<!-- EventsListComponent  -->
<g id="node35" class="node">
<title>EventsListComponent </title>
<polygon fill="#fb8072" stroke="#000000" points="1933.2135,-252 1788.7865,-252 1788.7865,-216 1933.2135,-216 1933.2135,-252"/>
<text text-anchor="middle" x="1861" y="-229.8" font-family="Times,serif" font-size="14.00" fill="#000000">EventsListComponent </text>
</g>
<!-- SharedModule&#45;&gt;EventsListComponent  -->
<g id="edge34" class="edge">
<title>SharedModule&#45;&gt;EventsListComponent </title>
<path fill="none" stroke="#000000" stroke-dasharray="5,2" d="M2054.3731,-185C2001.6576,-185 1925.8421,-185 1925.8421,-185 1925.8421,-185 1925.8421,-205.7542 1925.8421,-205.7542"/>
<polygon fill="#000000" stroke="#000000" points="1922.3421,-205.7542 1925.8421,-215.7542 1929.3421,-205.7542 1922.3421,-205.7542"/>
</g>
<!-- NotesListComponent  -->
<g id="node36" class="node">
<title>NotesListComponent </title>
<polygon fill="#fb8072" stroke="#000000" points="1770.7675,-252 1631.2325,-252 1631.2325,-216 1770.7675,-216 1770.7675,-252"/>
<text text-anchor="middle" x="1701" y="-229.8" font-family="Times,serif" font-size="14.00" fill="#000000">NotesListComponent </text>
</g>
<!-- SharedModule&#45;&gt;NotesListComponent  -->
<g id="edge35" class="edge">
<title>SharedModule&#45;&gt;NotesListComponent </title>
<path fill="none" stroke="#000000" stroke-dasharray="5,2" d="M2054.6736,-183C1958.9154,-183 1757.1531,-183 1757.1531,-183 1757.1531,-183 1757.1531,-205.8757 1757.1531,-205.8757"/>
<polygon fill="#000000" stroke="#000000" points="1753.6531,-205.8757 1757.1531,-215.8757 1760.6531,-205.8757 1753.6531,-205.8757"/>
</g>
<!-- ViewContactComponent  -->
<g id="node37" class="node">
<title>ViewContactComponent </title>
<polygon fill="#fb8072" stroke="#000000" points="1613.1981,-252 1454.8019,-252 1454.8019,-216 1613.1981,-216 1613.1981,-252"/>
<text text-anchor="middle" x="1534" y="-229.8" font-family="Times,serif" font-size="14.00" fill="#000000">ViewContactComponent </text>
</g>
<!-- SharedModule&#45;&gt;ViewContactComponent  -->
<g id="edge36" class="edge">
<title>SharedModule&#45;&gt;ViewContactComponent </title>
<path fill="none" stroke="#000000" stroke-dasharray="5,2" d="M2054.3672,-181C1926.5446,-181 1596.0135,-181 1596.0135,-181 1596.0135,-181 1596.0135,-205.7604 1596.0135,-205.7604"/>
<polygon fill="#000000" stroke="#000000" points="1592.5136,-205.7604 1596.0135,-215.7604 1599.5136,-205.7604 1592.5136,-205.7604"/>
</g>
<!-- ServicesListComponent  -->
<g id="node38" class="node">
<title>ServicesListComponent </title>
<polygon fill="#fb8072" stroke="#000000" points="1437.033,-252 1282.967,-252 1282.967,-216 1437.033,-216 1437.033,-252"/>
<text text-anchor="middle" x="1360" y="-229.8" font-family="Times,serif" font-size="14.00" fill="#000000">ServicesListComponent </text>
</g>
<!-- SharedModule&#45;&gt;ServicesListComponent  -->
<g id="edge37" class="edge">
<title>SharedModule&#45;&gt;ServicesListComponent </title>
<path fill="none" stroke="#000000" stroke-dasharray="5,2" d="M2054.6626,-179C1899.7124,-179 1433.0388,-179 1433.0388,-179 1433.0388,-179 1433.0388,-205.9909 1433.0388,-205.9909"/>
<polygon fill="#000000" stroke="#000000" points="1429.5388,-205.9909 1433.0388,-215.9909 1436.5388,-205.991 1429.5388,-205.9909"/>
</g>
<!-- RemoveBtnComponent  -->
<g id="node39" class="node">
<title>RemoveBtnComponent </title>
<polygon fill="#fb8072" stroke="#000000" points="1264.7163,-252 1113.2837,-252 1113.2837,-216 1264.7163,-216 1264.7163,-252"/>
<text text-anchor="middle" x="1189" y="-229.8" font-family="Times,serif" font-size="14.00" fill="#000000">RemoveBtnComponent </text>
</g>
<!-- SharedModule&#45;&gt;RemoveBtnComponent  -->
<g id="edge38" class="edge">
<title>SharedModule&#45;&gt;RemoveBtnComponent </title>
<path fill="none" stroke="#000000" stroke-dasharray="5,2" d="M2054.6275,-177C1873.2206,-177 1254.0184,-177 1254.0184,-177 1254.0184,-177 1254.0184,-205.9648 1254.0184,-205.9648"/>
<polygon fill="#000000" stroke="#000000" points="1250.5185,-205.9648 1254.0184,-215.9648 1257.5185,-205.9649 1250.5185,-205.9648"/>
</g>
<!-- CommonModule -->
<g id="node24" class="node">
<title>CommonModule</title>
<polygon fill="#8dd3c7" stroke="#000000" points="615.6681,-122 612.6681,-126 591.6681,-126 588.6681,-122 504.3319,-122 504.3319,-86 615.6681,-86 615.6681,-122"/>
<text text-anchor="middle" x="560" y="-99.8" font-family="Times,serif" font-size="14.00" fill="#000000">CommonModule</text>
</g>
<!-- CommonModule&#45;&gt;SharedModule -->
<g id="edge23" class="edge">
<title>CommonModule&#45;&gt;SharedModule</title>
<path fill="none" stroke="#000000" d="M560,-122.1061C560,-141.3391 560,-169 560,-169 560,-169 2044.3771,-169 2044.3771,-169"/>
<polygon fill="#000000" stroke="#000000" points="2044.3771,-172.5001 2054.3771,-169 2044.377,-165.5001 2044.3771,-172.5001"/>
</g>
<!-- CoreModule -->
<g id="node25" class="node">
<title>CoreModule</title>
<polygon fill="#8dd3c7" stroke="#000000" points="486.2619,-122 483.2619,-126 462.2619,-126 459.2619,-122 399.7381,-122 399.7381,-86 486.2619,-86 486.2619,-122"/>
<text text-anchor="middle" x="443" y="-99.8" font-family="Times,serif" font-size="14.00" fill="#000000">CoreModule</text>
</g>
<!-- CoreModule&#45;&gt;SharedModule -->
<g id="edge24" class="edge">
<title>CoreModule&#45;&gt;SharedModule</title>
<path fill="none" stroke="#000000" d="M443,-122.308C443,-142.1455 443,-171 443,-171 443,-171 2044.7402,-171 2044.7402,-171"/>
<polygon fill="#000000" stroke="#000000" points="2044.7402,-174.5001 2054.7402,-171 2044.7402,-167.5001 2044.7402,-174.5001"/>
</g>
<!-- NgxMaterialTimepickerModule -->
<g id="node26" class="node">
<title>NgxMaterialTimepickerModule</title>
<polygon fill="#8dd3c7" stroke="#000000" points="381.6064,-122 378.6064,-126 357.6064,-126 354.6064,-122 186.3936,-122 186.3936,-86 381.6064,-86 381.6064,-122"/>
<text text-anchor="middle" x="284" y="-99.8" font-family="Times,serif" font-size="14.00" fill="#000000">NgxMaterialTimepickerModule</text>
</g>
<!-- NgxMaterialTimepickerModule&#45;&gt;SharedModule -->
<g id="edge25" class="edge">
<title>NgxMaterialTimepickerModule&#45;&gt;SharedModule</title>
<path fill="none" stroke="#000000" d="M284,-122.1289C284,-142.5724 284,-173 284,-173 284,-173 2044.3755,-173 2044.3755,-173"/>
<polygon fill="#000000" stroke="#000000" points="2044.3755,-176.5001 2054.3755,-173 2044.3755,-169.5001 2044.3755,-176.5001"/>
</g>
<!-- CustomerFormModule -->
<g id="node27" class="node">
<title>CustomerFormModule</title>
<polygon fill="#8dd3c7" stroke="#000000" points="168.3216,-122 165.3216,-126 144.3216,-126 141.3216,-122 23.6784,-122 23.6784,-86 168.3216,-86 168.3216,-122"/>
<text text-anchor="middle" x="96" y="-99.8" font-family="Times,serif" font-size="14.00" fill="#000000">CustomerFormModule</text>
</g>
<!-- CustomerFormModule&#45;&gt;SharedModule -->
<g id="edge26" class="edge">
<title>CustomerFormModule&#45;&gt;SharedModule</title>
<path fill="none" stroke="#000000" d="M96,-122.2843C96,-143.3211 96,-175 96,-175 96,-175 2044.3638,-175 2044.3638,-175"/>
<polygon fill="#000000" stroke="#000000" points="2044.3638,-178.5001 2054.3638,-175 2044.3637,-171.5001 2044.3638,-178.5001"/>
</g>
</g>
</svg>
