<?xml version="1.0" encoding="UTF-8" standalone="no"?>
<!DOCTYPE svg PUBLIC "-//W3C//DTD SVG 1.1//EN"
 "http://www.w3.org/Graphics/SVG/1.1/DTD/svg11.dtd">
<!-- Generated by graphviz version 2.40.1 (20161225.0304)
 -->
<!-- Title: dependencies Pages: 1 -->
<svg width="2690pt" height="211pt"
 viewBox="0.00 0.00 2690.00 211.00" xmlns="http://www.w3.org/2000/svg" xmlns:xlink="http://www.w3.org/1999/xlink">
<g id="graph0" class="graph" transform="scale(1 1) rotate(0) translate(4 207)">
<title>dependencies</title>
<polygon fill="#ffffff" stroke="transparent" points="-4,4 -4,-207 2686,-207 2686,4 -4,4"/>
<text text-anchor="start" x="1320.0091" y="-42.4" font-family="sans-serif" font-weight="bold" font-size="14.00" fill="#000000">Legend</text>
<polygon fill="#ffffb3" stroke="transparent" points="1107,-10 1107,-30 1127,-30 1127,-10 1107,-10"/>
<text text-anchor="start" x="1130.629" y="-15.4" font-family="sans-serif" font-size="14.00" fill="#000000"> &#160;Declarations</text>
<polygon fill="#8dd3c7" stroke="transparent" points="1220,-10 1220,-30 1240,-30 1240,-10 1220,-10"/>
<text text-anchor="start" x="1243.7251" y="-15.4" font-family="sans-serif" font-size="14.00" fill="#000000"> &#160;Module</text>
<polygon fill="#80b1d3" stroke="transparent" points="1306,-10 1306,-30 1326,-30 1326,-10 1306,-10"/>
<text text-anchor="start" x="1329.7812" y="-15.4" font-family="sans-serif" font-size="14.00" fill="#000000"> &#160;Bootstrap</text>
<polygon fill="#fdb462" stroke="transparent" points="1403,-10 1403,-30 1423,-30 1423,-10 1403,-10"/>
<text text-anchor="start" x="1426.6732" y="-15.4" font-family="sans-serif" font-size="14.00" fill="#000000"> &#160;Providers</text>
<polygon fill="#fb8072" stroke="transparent" points="1499,-10 1499,-30 1519,-30 1519,-10 1499,-10"/>
<text text-anchor="start" x="1522.7258" y="-15.4" font-family="sans-serif" font-size="14.00" fill="#000000"> &#160;Exports</text>
<g id="clust1" class="cluster">
<title>cluster_DevicesModule</title>
<polygon fill="none" stroke="#000000" stroke-dasharray="1,5" points="8,-70 8,-195 2674,-195 2674,-70 8,-70"/>
</g>
<g id="clust2" class="cluster">
<title>cluster_DevicesModule_declarations</title>
<polygon fill="none" stroke="#000000" points="1392,-78 1392,-130 2666,-130 2666,-78 1392,-78"/>
</g>
<g id="clust10" class="cluster">
<title>cluster_DevicesModule_imports</title>
<polygon fill="none" stroke="#000000" points="424,-78 424,-130 1384,-130 1384,-78 424,-78"/>
</g>
<g id="clust13" class="cluster">
<title>cluster_DevicesModule_providers</title>
<polygon fill="none" stroke="#000000" points="16,-78 16,-130 416,-130 416,-78 16,-78"/>
</g>
<!-- DevicesListComponent -->
<g id="node1" class="node">
<title>DevicesListComponent</title>
<polygon fill="#ffffb3" stroke="#000000" points="2658.1965,-122 2509.8035,-122 2509.8035,-86 2658.1965,-86 2658.1965,-122"/>
<text text-anchor="middle" x="2584" y="-99.8" font-family="Times,serif" font-size="14.00" fill="#000000">DevicesListComponent</text>
</g>
<!-- DevicesModule -->
<g id="node8" class="node">
<title>DevicesModule</title>
<polygon fill="#8dd3c7" stroke="#000000" points="1313.136,-187 1310.136,-191 1289.136,-191 1286.136,-187 1208.864,-187 1208.864,-151 1313.136,-151 1313.136,-187"/>
<text text-anchor="middle" x="1261" y="-164.8" font-family="Times,serif" font-size="14.00" fill="#000000">DevicesModule</text>
</g>
<!-- DevicesListComponent&#45;&gt;DevicesModule -->
<g id="edge1" class="edge">
<title>DevicesListComponent&#45;&gt;DevicesModule</title>
<path fill="none" stroke="#000000" d="M2584,-122.3228C2584,-145.6602 2584,-183 2584,-183 2584,-183 1323.2707,-183 1323.2707,-183"/>
<polygon fill="#000000" stroke="#000000" points="1323.2707,-179.5001 1313.2707,-183 1323.2706,-186.5001 1323.2707,-179.5001"/>
</g>
<!-- DevicesIndexComponent -->
<g id="node2" class="node">
<title>DevicesIndexComponent</title>
<polygon fill="#ffffb3" stroke="#000000" points="2492.2935,-122 2333.7065,-122 2333.7065,-86 2492.2935,-86 2492.2935,-122"/>
<text text-anchor="middle" x="2413" y="-99.8" font-family="Times,serif" font-size="14.00" fill="#000000">DevicesIndexComponent</text>
</g>
<!-- DevicesIndexComponent&#45;&gt;DevicesModule -->
<g id="edge2" class="edge">
<title>DevicesIndexComponent&#45;&gt;DevicesModule</title>
<path fill="none" stroke="#000000" d="M2413,-122.2921C2413,-144.2057 2413,-178 2413,-178 2413,-178 1323.4925,-178 1323.4925,-178"/>
<polygon fill="#000000" stroke="#000000" points="1323.4926,-174.5001 1313.4925,-178 1323.4925,-181.5001 1323.4926,-174.5001"/>
</g>
<!-- DevicesComponent -->
<g id="node3" class="node">
<title>DevicesComponent</title>
<polygon fill="#ffffb3" stroke="#000000" points="2316.4187,-122 2189.5813,-122 2189.5813,-86 2316.4187,-86 2316.4187,-122"/>
<text text-anchor="middle" x="2253" y="-99.8" font-family="Times,serif" font-size="14.00" fill="#000000">DevicesComponent</text>
</g>
<!-- DevicesComponent&#45;&gt;DevicesModule -->
<g id="edge3" class="edge">
<title>DevicesComponent&#45;&gt;DevicesModule</title>
<path fill="none" stroke="#000000" d="M2253,-122.0267C2253,-142.7672 2253,-174 2253,-174 2253,-174 1323.2852,-174 1323.2852,-174"/>
<polygon fill="#000000" stroke="#000000" points="1323.2852,-170.5001 1313.2852,-174 1323.2851,-177.5001 1323.2852,-170.5001"/>
</g>
<!-- DeviceEditComponent -->
<g id="node4" class="node">
<title>DeviceEditComponent</title>
<polygon fill="#ffffb3" stroke="#000000" points="2172.3075,-122 2027.6925,-122 2027.6925,-86 2172.3075,-86 2172.3075,-122"/>
<text text-anchor="middle" x="2100" y="-99.8" font-family="Times,serif" font-size="14.00" fill="#000000">DeviceEditComponent</text>
</g>
<!-- DeviceEditComponent&#45;&gt;DevicesModule -->
<g id="edge4" class="edge">
<title>DeviceEditComponent&#45;&gt;DevicesModule</title>
<path fill="none" stroke="#000000" d="M2100,-122.1061C2100,-141.3391 2100,-169 2100,-169 2100,-169 1323.1662,-169 1323.1662,-169"/>
<polygon fill="#000000" stroke="#000000" points="1323.1662,-165.5001 1313.1662,-169 1323.1662,-172.5001 1323.1662,-165.5001"/>
</g>
<!-- DeviceDetailsButtonComponent -->
<g id="node5" class="node">
<title>DeviceDetailsButtonComponent</title>
<polygon fill="#ffffb3" stroke="#000000" points="2009.2436,-122 1810.7564,-122 1810.7564,-86 2009.2436,-86 2009.2436,-122"/>
<text text-anchor="middle" x="1910" y="-99.8" font-family="Times,serif" font-size="14.00" fill="#000000">DeviceDetailsButtonComponent</text>
</g>
<!-- DeviceDetailsButtonComponent&#45;&gt;DevicesModule -->
<g id="edge5" class="edge">
<title>DeviceDetailsButtonComponent&#45;&gt;DevicesModule</title>
<path fill="none" stroke="#000000" d="M1910,-122.302C1910,-140.2699 1910,-165 1910,-165 1910,-165 1323.2867,-165 1323.2867,-165"/>
<polygon fill="#000000" stroke="#000000" points="1323.2867,-161.5001 1313.2867,-165 1323.2866,-168.5001 1323.2867,-161.5001"/>
</g>
<!-- DeviceQuickViewDialogComponent -->
<g id="node6" class="node">
<title>DeviceQuickViewDialogComponent</title>
<polygon fill="#ffffb3" stroke="#000000" points="1792.6063,-122 1569.3937,-122 1569.3937,-86 1792.6063,-86 1792.6063,-122"/>
<text text-anchor="middle" x="1681" y="-99.8" font-family="Times,serif" font-size="14.00" fill="#000000">DeviceQuickViewDialogComponent</text>
</g>
<!-- DeviceQuickViewDialogComponent&#45;&gt;DevicesModule -->
<g id="edge6" class="edge">
<title>DeviceQuickViewDialogComponent&#45;&gt;DevicesModule</title>
<path fill="none" stroke="#000000" d="M1681,-122.027C1681,-138.3976 1681,-160 1681,-160 1681,-160 1323.3441,-160 1323.3441,-160"/>
<polygon fill="#000000" stroke="#000000" points="1323.3441,-156.5001 1313.3441,-160 1323.344,-163.5001 1323.3441,-156.5001"/>
</g>
<!-- ViewDeviceComponent -->
<g id="node7" class="node">
<title>ViewDeviceComponent</title>
<polygon fill="#ffffb3" stroke="#000000" points="1551.7921,-122 1400.2079,-122 1400.2079,-86 1551.7921,-86 1551.7921,-122"/>
<text text-anchor="middle" x="1476" y="-99.8" font-family="Times,serif" font-size="14.00" fill="#000000">ViewDeviceComponent</text>
</g>
<!-- ViewDeviceComponent&#45;&gt;DevicesModule -->
<g id="edge7" class="edge">
<title>ViewDeviceComponent&#45;&gt;DevicesModule</title>
<path fill="none" stroke="#000000" d="M1476,-122.1871C1476,-137.1824 1476,-156 1476,-156 1476,-156 1323.32,-156 1323.32,-156"/>
<polygon fill="#000000" stroke="#000000" points="1323.32,-152.5001 1313.32,-156 1323.32,-159.5001 1323.32,-152.5001"/>
</g>
<!-- CommonModule -->
<g id="node9" class="node">
<title>CommonModule</title>
<polygon fill="#8dd3c7" stroke="#000000" points="1375.6681,-122 1372.6681,-126 1351.6681,-126 1348.6681,-122 1264.3319,-122 1264.3319,-86 1375.6681,-86 1375.6681,-122"/>
<text text-anchor="middle" x="1320" y="-99.8" font-family="Times,serif" font-size="14.00" fill="#000000">CommonModule</text>
</g>
<!-- CommonModule&#45;&gt;DevicesModule -->
<g id="edge8" class="edge">
<title>CommonModule&#45;&gt;DevicesModule</title>
<path fill="none" stroke="#000000" d="M1288.742,-122.1061C1288.742,-122.1061 1288.742,-140.991 1288.742,-140.991"/>
<polygon fill="#000000" stroke="#000000" points="1285.242,-140.9909 1288.742,-150.991 1292.242,-140.991 1285.242,-140.9909"/>
</g>
<!-- CoreModule -->
<g id="node10" class="node">
<title>CoreModule</title>
<polygon fill="#8dd3c7" stroke="#000000" points="1246.2619,-122 1243.2619,-126 1222.2619,-126 1219.2619,-122 1159.7381,-122 1159.7381,-86 1246.2619,-86 1246.2619,-122"/>
<text text-anchor="middle" x="1203" y="-99.8" font-family="Times,serif" font-size="14.00" fill="#000000">CoreModule</text>
</g>
<!-- CoreModule&#45;&gt;DevicesModule -->
<g id="edge9" class="edge">
<title>CoreModule&#45;&gt;DevicesModule</title>
<path fill="none" stroke="#000000" d="M1227.5316,-122.1061C1227.5316,-122.1061 1227.5316,-140.991 1227.5316,-140.991"/>
<polygon fill="#000000" stroke="#000000" points="1224.0316,-140.9909 1227.5316,-150.991 1231.0316,-140.991 1224.0316,-140.9909"/>
</g>
<!-- AgmCoreModule -->
<g id="node11" class="node">
<title>AgmCoreModule</title>
<polygon fill="#8dd3c7" stroke="#000000" points="1141.2591,-122 1138.2591,-126 1117.2591,-126 1114.2591,-122 1026.7409,-122 1026.7409,-86 1141.2591,-86 1141.2591,-122"/>
<text text-anchor="middle" x="1084" y="-99.8" font-family="Times,serif" font-size="14.00" fill="#000000">AgmCoreModule</text>
</g>
<!-- AgmCoreModule&#45;&gt;DevicesModule -->
<g id="edge10" class="edge">
<title>AgmCoreModule&#45;&gt;DevicesModule</title>
<path fill="none" stroke="#000000" d="M1084,-122.1871C1084,-137.1824 1084,-156 1084,-156 1084,-156 1198.8515,-156 1198.8515,-156"/>
<polygon fill="#000000" stroke="#000000" points="1198.8515,-159.5001 1208.8515,-156 1198.8515,-152.5001 1198.8515,-159.5001"/>
</g>
<!-- SharedModule -->
<g id="node12" class="node">
<title>SharedModule</title>
<polygon fill="#8dd3c7" stroke="#000000" points="1008.4231,-122 1005.4231,-126 984.4231,-126 981.4231,-122 909.5769,-122 909.5769,-86 1008.4231,-86 1008.4231,-122"/>
<text text-anchor="middle" x="959" y="-99.8" font-family="Times,serif" font-size="14.00" fill="#000000">SharedModule</text>
</g>
<!-- SharedModule&#45;&gt;DevicesModule -->
<g id="edge11" class="edge">
<title>SharedModule&#45;&gt;DevicesModule</title>
<path fill="none" stroke="#000000" d="M959,-122.027C959,-138.3976 959,-160 959,-160 959,-160 1198.7404,-160 1198.7404,-160"/>
<polygon fill="#000000" stroke="#000000" points="1198.7404,-163.5001 1208.7404,-160 1198.7404,-156.5001 1198.7404,-163.5001"/>
</g>
<!-- DevicesRoutingModule -->
<g id="node13" class="node">
<title>DevicesRoutingModule</title>
<polygon fill="#8dd3c7" stroke="#000000" points="891.7534,-122 888.7534,-126 867.7534,-126 864.7534,-122 742.2466,-122 742.2466,-86 891.7534,-86 891.7534,-122"/>
<text text-anchor="middle" x="817" y="-99.8" font-family="Times,serif" font-size="14.00" fill="#000000">DevicesRoutingModule</text>
</g>
<!-- DevicesRoutingModule&#45;&gt;DevicesModule -->
<g id="edge12" class="edge">
<title>DevicesRoutingModule&#45;&gt;DevicesModule</title>
<path fill="none" stroke="#000000" d="M817,-122.302C817,-140.2699 817,-165 817,-165 817,-165 1198.7619,-165 1198.7619,-165"/>
<polygon fill="#000000" stroke="#000000" points="1198.762,-168.5001 1208.7619,-165 1198.7619,-161.5001 1198.762,-168.5001"/>
</g>
<!-- CustomerFormModule -->
<g id="node14" class="node">
<title>CustomerFormModule</title>
<polygon fill="#8dd3c7" stroke="#000000" points="724.3216,-122 721.3216,-126 700.3216,-126 697.3216,-122 579.6784,-122 579.6784,-86 724.3216,-86 724.3216,-122"/>
<text text-anchor="middle" x="652" y="-99.8" font-family="Times,serif" font-size="14.00" fill="#000000">CustomerFormModule</text>
</g>
<!-- CustomerFormModule&#45;&gt;DevicesModule -->
<g id="edge13" class="edge">
<title>CustomerFormModule&#45;&gt;DevicesModule</title>
<path fill="none" stroke="#000000" d="M652,-122.1061C652,-141.3391 652,-169 652,-169 652,-169 1198.8137,-169 1198.8137,-169"/>
<polygon fill="#000000" stroke="#000000" points="1198.8138,-172.5001 1208.8137,-169 1198.8137,-165.5001 1198.8138,-172.5001"/>
</g>
<!-- DeviceFormModule -->
<g id="node15" class="node">
<title>DeviceFormModule</title>
<polygon fill="#8dd3c7" stroke="#000000" points="561.5255,-122 558.5255,-126 537.5255,-126 534.5255,-122 432.4745,-122 432.4745,-86 561.5255,-86 561.5255,-122"/>
<text text-anchor="middle" x="497" y="-99.8" font-family="Times,serif" font-size="14.00" fill="#000000">DeviceFormModule</text>
</g>
<!-- DeviceFormModule&#45;&gt;DevicesModule -->
<g id="edge14" class="edge">
<title>DeviceFormModule&#45;&gt;DevicesModule</title>
<path fill="none" stroke="#000000" d="M497,-122.0267C497,-142.7672 497,-174 497,-174 497,-174 1198.7879,-174 1198.7879,-174"/>
<polygon fill="#000000" stroke="#000000" points="1198.7879,-177.5001 1208.7879,-174 1198.7878,-170.5001 1198.7879,-177.5001"/>
</g>
<!-- DevicesService -->
<g id="node16" class="node">
<title>DevicesService</title>
<ellipse fill="#fdb462" stroke="#000000" cx="337" cy="-104" rx="71.1823" ry="18"/>
<text text-anchor="middle" x="337" y="-99.8" font-family="Times,serif" font-size="14.00" fill="#000000">DevicesService</text>
</g>
<!-- DevicesService&#45;&gt;DevicesModule -->
<g id="edge15" class="edge">
<title>DevicesService&#45;&gt;DevicesModule</title>
<path fill="none" stroke="#000000" d="M337,-122.2921C337,-144.2057 337,-178 337,-178 337,-178 1198.6743,-178 1198.6743,-178"/>
<polygon fill="#000000" stroke="#000000" points="1198.6743,-181.5001 1208.6743,-178 1198.6743,-174.5001 1198.6743,-181.5001"/>
</g>
<!-- RegistryNumberValidator -->
<g id="node17" class="node">
<title>RegistryNumberValidator</title>
<ellipse fill="#fdb462" stroke="#000000" cx="136" cy="-104" rx="111.7353" ry="18"/>
<text text-anchor="middle" x="136" y="-99.8" font-family="Times,serif" font-size="14.00" fill="#000000">RegistryNumberValidator</text>
</g>
<!-- RegistryNumberValidator&#45;&gt;DevicesModule -->
<g id="edge16" class="edge">
<title>RegistryNumberValidator&#45;&gt;DevicesModule</title>
<path fill="none" stroke="#000000" d="M136,-122.3228C136,-145.6602 136,-183 136,-183 136,-183 1198.6221,-183 1198.6221,-183"/>
<polygon fill="#000000" stroke="#000000" points="1198.6221,-186.5001 1208.6221,-183 1198.6221,-179.5001 1198.6221,-186.5001"/>
</g>
</g>
</svg>
