<?xml version="1.0" encoding="UTF-8" standalone="no"?>
<!DOCTYPE svg PUBLIC "-//W3C//DTD SVG 1.1//EN"
 "http://www.w3.org/Graphics/SVG/1.1/DTD/svg11.dtd">
<!-- Generated by graphviz version 2.40.1 (20161225.0304)
 -->
<!-- Title: dependencies Pages: 1 -->
<svg width="1910pt" height="284pt"
 viewBox="0.00 0.00 1910.00 284.00" xmlns="http://www.w3.org/2000/svg" xmlns:xlink="http://www.w3.org/1999/xlink">
<g id="graph0" class="graph" transform="scale(1 1) rotate(0) translate(4 280)">
<title>dependencies</title>
<polygon fill="#ffffff" stroke="transparent" points="-4,4 -4,-280 1906,-280 1906,4 -4,4"/>
<text text-anchor="start" x="930.0091" y="-42.4" font-family="sans-serif" font-weight="bold" font-size="14.00" fill="#000000">Legend</text>
<polygon fill="#ffffb3" stroke="transparent" points="717,-10 717,-30 737,-30 737,-10 717,-10"/>
<text text-anchor="start" x="740.629" y="-15.4" font-family="sans-serif" font-size="14.00" fill="#000000"> &#160;Declarations</text>
<polygon fill="#8dd3c7" stroke="transparent" points="830,-10 830,-30 850,-30 850,-10 830,-10"/>
<text text-anchor="start" x="853.7251" y="-15.4" font-family="sans-serif" font-size="14.00" fill="#000000"> &#160;Module</text>
<polygon fill="#80b1d3" stroke="transparent" points="916,-10 916,-30 936,-30 936,-10 916,-10"/>
<text text-anchor="start" x="939.7812" y="-15.4" font-family="sans-serif" font-size="14.00" fill="#000000"> &#160;Bootstrap</text>
<polygon fill="#fdb462" stroke="transparent" points="1013,-10 1013,-30 1033,-30 1033,-10 1013,-10"/>
<text text-anchor="start" x="1036.6732" y="-15.4" font-family="sans-serif" font-size="14.00" fill="#000000"> &#160;Providers</text>
<polygon fill="#fb8072" stroke="transparent" points="1109,-10 1109,-30 1129,-30 1129,-10 1109,-10"/>
<text text-anchor="start" x="1132.7258" y="-15.4" font-family="sans-serif" font-size="14.00" fill="#000000"> &#160;Exports</text>
<g id="clust1" class="cluster">
<title>cluster_CustomerFormModule</title>
<polygon fill="none" stroke="#000000" stroke-dasharray="1,5" points="8,-70 8,-268 1894,-268 1894,-70 8,-70"/>
</g>
<g id="clust2" class="cluster">
<title>cluster_CustomerFormModule_declarations</title>
<polygon fill="none" stroke="#000000" points="416,-78 416,-130 1886,-130 1886,-78 416,-78"/>
</g>
<g id="clust11" class="cluster">
<title>cluster_CustomerFormModule_imports</title>
<polygon fill="none" stroke="#000000" points="176,-78 176,-130 408,-130 408,-78 176,-78"/>
</g>
<g id="clust12" class="cluster">
<title>cluster_CustomerFormModule_exports</title>
<polygon fill="none" stroke="#000000" points="223,-208 223,-260 1547,-260 1547,-208 223,-208"/>
</g>
<g id="clust14" class="cluster">
<title>cluster_CustomerFormModule_providers</title>
<polygon fill="none" stroke="#000000" points="16,-78 16,-130 168,-130 168,-78 16,-78"/>
</g>
<!-- NewCustomerButtonComponent -->
<g id="node1" class="node">
<title>NewCustomerButtonComponent</title>
<polygon fill="#ffffb3" stroke="#000000" points="1878.3158,-122 1677.6842,-122 1677.6842,-86 1878.3158,-86 1878.3158,-122"/>
<text text-anchor="middle" x="1778" y="-99.8" font-family="Times,serif" font-size="14.00" fill="#000000">NewCustomerButtonComponent</text>
</g>
<!-- CustomerFormModule -->
<g id="node9" class="node">
<title>CustomerFormModule</title>
<polygon fill="#8dd3c7" stroke="#000000" points="926.3216,-187 923.3216,-191 902.3216,-191 899.3216,-187 781.6784,-187 781.6784,-151 926.3216,-151 926.3216,-187"/>
<text text-anchor="middle" x="854" y="-164.8" font-family="Times,serif" font-size="14.00" fill="#000000">CustomerFormModule</text>
</g>
<!-- NewCustomerButtonComponent&#45;&gt;CustomerFormModule -->
<g id="edge1" class="edge">
<title>NewCustomerButtonComponent&#45;&gt;CustomerFormModule</title>
<path fill="none" stroke="#000000" d="M1778,-122.308C1778,-142.1455 1778,-171 1778,-171 1778,-171 936.5047,-171 936.5047,-171"/>
<polygon fill="#000000" stroke="#000000" points="936.5048,-167.5001 926.5047,-171 936.5047,-174.5001 936.5048,-167.5001"/>
</g>
<!-- CustomerDialogComponent -->
<g id="node2" class="node">
<title>CustomerDialogComponent</title>
<polygon fill="#ffffb3" stroke="#000000" points="1659.8724,-122 1486.1276,-122 1486.1276,-86 1659.8724,-86 1659.8724,-122"/>
<text text-anchor="middle" x="1573" y="-99.8" font-family="Times,serif" font-size="14.00" fill="#000000">CustomerDialogComponent</text>
</g>
<!-- CustomerDialogComponent&#45;&gt;CustomerFormModule -->
<g id="edge2" class="edge">
<title>CustomerDialogComponent&#45;&gt;CustomerFormModule</title>
<path fill="none" stroke="#000000" d="M1512.4858,-122.2222C1512.4858,-140.8285 1512.4858,-167 1512.4858,-167 1512.4858,-167 936.3531,-167 936.3531,-167"/>
<polygon fill="#000000" stroke="#000000" points="936.3532,-163.5001 926.3531,-167 936.3531,-170.5001 936.3532,-163.5001"/>
</g>
<!-- CustomerFormComponent -->
<g id="node3" class="node">
<title>CustomerFormComponent</title>
<polygon fill="#ffffb3" stroke="#000000" points="1468.1038,-122 1301.8962,-122 1301.8962,-86 1468.1038,-86 1468.1038,-122"/>
<text text-anchor="middle" x="1385" y="-99.8" font-family="Times,serif" font-size="14.00" fill="#000000">CustomerFormComponent</text>
</g>
<!-- CustomerFormComponent&#45;&gt;CustomerFormModule -->
<g id="edge3" class="edge">
<title>CustomerFormComponent&#45;&gt;CustomerFormModule</title>
<path fill="none" stroke="#000000" d="M1309.3172,-122.0225C1309.3172,-139.3734 1309.3172,-163 1309.3172,-163 1309.3172,-163 936.3979,-163 936.3979,-163"/>
<polygon fill="#000000" stroke="#000000" points="936.398,-159.5001 926.3979,-163 936.3979,-166.5001 936.398,-159.5001"/>
</g>
<!-- AddressFormComponent -->
<g id="node4" class="node">
<title>AddressFormComponent</title>
<polygon fill="#ffffb3" stroke="#000000" points="1283.5379,-122 1126.4621,-122 1126.4621,-86 1283.5379,-86 1283.5379,-122"/>
<text text-anchor="middle" x="1205" y="-99.8" font-family="Times,serif" font-size="14.00" fill="#000000">AddressFormComponent</text>
</g>
<!-- AddressFormComponent&#45;&gt;CustomerFormModule -->
<g id="edge4" class="edge">
<title>AddressFormComponent&#45;&gt;CustomerFormModule</title>
<path fill="none" stroke="#000000" d="M1132.7726,-122.0091C1132.7726,-138.0494 1132.7726,-159 1132.7726,-159 1132.7726,-159 936.5165,-159 936.5165,-159"/>
<polygon fill="#000000" stroke="#000000" points="936.5165,-155.5001 926.5165,-159 936.5165,-162.5001 936.5165,-155.5001"/>
</g>
<!-- ContactFormComponent -->
<g id="node5" class="node">
<title>ContactFormComponent</title>
<polygon fill="#ffffb3" stroke="#000000" points="1108.7133,-122 953.2867,-122 953.2867,-86 1108.7133,-86 1108.7133,-122"/>
<text text-anchor="middle" x="1031" y="-99.8" font-family="Times,serif" font-size="14.00" fill="#000000">ContactFormComponent</text>
</g>
<!-- ContactFormComponent&#45;&gt;CustomerFormModule -->
<g id="edge5" class="edge">
<title>ContactFormComponent&#45;&gt;CustomerFormModule</title>
<path fill="none" stroke="#000000" d="M1056.8689,-122.1243C1056.8689,-136.7832 1056.8689,-155 1056.8689,-155 1056.8689,-155 936.3811,-155 936.3811,-155"/>
<polygon fill="#000000" stroke="#000000" points="936.3812,-151.5001 926.3811,-155 936.3811,-158.5001 936.3812,-151.5001"/>
</g>
<!-- BranchesFormComponent -->
<g id="node6" class="node">
<title>BranchesFormComponent</title>
<polygon fill="#ffffb3" stroke="#000000" points="935.752,-122 772.248,-122 772.248,-86 935.752,-86 935.752,-122"/>
<text text-anchor="middle" x="854" y="-99.8" font-family="Times,serif" font-size="14.00" fill="#000000">BranchesFormComponent</text>
</g>
<!-- BranchesFormComponent&#45;&gt;CustomerFormModule -->
<g id="edge6" class="edge">
<title>BranchesFormComponent&#45;&gt;CustomerFormModule</title>
<path fill="none" stroke="#000000" d="M854,-122.1061C854,-122.1061 854,-140.991 854,-140.991"/>
<polygon fill="#000000" stroke="#000000" points="850.5001,-140.9909 854,-150.991 857.5001,-140.991 850.5001,-140.9909"/>
</g>
<!-- GroupsFormComponent -->
<g id="node7" class="node">
<title>GroupsFormComponent</title>
<polygon fill="#ffffb3" stroke="#000000" points="754.378,-122 601.622,-122 601.622,-86 754.378,-86 754.378,-122"/>
<text text-anchor="middle" x="678" y="-99.8" font-family="Times,serif" font-size="14.00" fill="#000000">GroupsFormComponent</text>
</g>
<!-- GroupsFormComponent&#45;&gt;CustomerFormModule -->
<g id="edge7" class="edge">
<title>GroupsFormComponent&#45;&gt;CustomerFormModule</title>
<path fill="none" stroke="#000000" d="M703.4797,-122.1243C703.4797,-136.7832 703.4797,-155 703.4797,-155 703.4797,-155 771.8259,-155 771.8259,-155"/>
<polygon fill="#000000" stroke="#000000" points="771.8259,-158.5001 781.8259,-155 771.8259,-151.5001 771.8259,-158.5001"/>
</g>
<!-- CustomerEditComponent -->
<g id="node8" class="node">
<title>CustomerEditComponent</title>
<polygon fill="#ffffb3" stroke="#000000" points="583.6038,-122 424.3962,-122 424.3962,-86 583.6038,-86 583.6038,-122"/>
<text text-anchor="middle" x="504" y="-99.8" font-family="Times,serif" font-size="14.00" fill="#000000">CustomerEditComponent</text>
</g>
<!-- CustomerEditComponent&#45;&gt;CustomerFormModule -->
<g id="edge8" class="edge">
<title>CustomerEditComponent&#45;&gt;CustomerFormModule</title>
<path fill="none" stroke="#000000" d="M527.2333,-122.0091C527.2333,-138.0494 527.2333,-159 527.2333,-159 527.2333,-159 771.4799,-159 771.4799,-159"/>
<polygon fill="#000000" stroke="#000000" points="771.4799,-162.5001 781.4799,-159 771.4798,-155.5001 771.4799,-162.5001"/>
</g>
<!-- NewCustomerButtonComponent  -->
<g id="node12" class="node">
<title>NewCustomerButtonComponent </title>
<polygon fill="#fb8072" stroke="#000000" points="1538.8157,-252 1335.1843,-252 1335.1843,-216 1538.8157,-216 1538.8157,-252"/>
<text text-anchor="middle" x="1437" y="-229.8" font-family="Times,serif" font-size="14.00" fill="#000000">NewCustomerButtonComponent </text>
</g>
<!-- CustomerFormModule&#45;&gt;NewCustomerButtonComponent  -->
<g id="edge11" class="edge">
<title>CustomerFormModule&#45;&gt;NewCustomerButtonComponent </title>
<path fill="none" stroke="#000000" stroke-dasharray="5,2" d="M926.4307,-175C1075.251,-175 1401.5721,-175 1401.5721,-175 1401.5721,-175 1401.5721,-205.9775 1401.5721,-205.9775"/>
<polygon fill="#000000" stroke="#000000" points="1398.0721,-205.9774 1401.5721,-215.9775 1405.0721,-205.9775 1398.0721,-205.9774"/>
</g>
<!-- CustomerDialogComponent  -->
<g id="node13" class="node">
<title>CustomerDialogComponent </title>
<polygon fill="#fb8072" stroke="#000000" points="1316.8728,-252 1139.1272,-252 1139.1272,-216 1316.8728,-216 1316.8728,-252"/>
<text text-anchor="middle" x="1228" y="-229.8" font-family="Times,serif" font-size="14.00" fill="#000000">CustomerDialogComponent </text>
</g>
<!-- CustomerFormModule&#45;&gt;CustomerDialogComponent  -->
<g id="edge12" class="edge">
<title>CustomerFormModule&#45;&gt;CustomerDialogComponent </title>
<path fill="none" stroke="#000000" stroke-dasharray="5,2" d="M926.3538,-179C1030.8284,-179 1211.5412,-179 1211.5412,-179 1211.5412,-179 1211.5412,-205.9909 1211.5412,-205.9909"/>
<polygon fill="#000000" stroke="#000000" points="1208.0413,-205.9909 1211.5412,-215.9909 1215.0413,-205.991 1208.0413,-205.9909"/>
</g>
<!-- CustomerFormComponent  -->
<g id="node14" class="node">
<title>CustomerFormComponent </title>
<polygon fill="#fb8072" stroke="#000000" points="1121.6043,-252 952.3957,-252 952.3957,-216 1121.6043,-216 1121.6043,-252"/>
<text text-anchor="middle" x="1037" y="-229.8" font-family="Times,serif" font-size="14.00" fill="#000000">CustomerFormComponent </text>
</g>
<!-- CustomerFormModule&#45;&gt;CustomerFormComponent  -->
<g id="edge13" class="edge">
<title>CustomerFormModule&#45;&gt;CustomerFormComponent </title>
<path fill="none" stroke="#000000" stroke-dasharray="5,2" d="M926.467,-183C965.2539,-183 1005.1311,-183 1005.1311,-183 1005.1311,-183 1005.1311,-205.8757 1005.1311,-205.8757"/>
<polygon fill="#000000" stroke="#000000" points="1001.6312,-205.8757 1005.1311,-215.8757 1008.6312,-205.8757 1001.6312,-205.8757"/>
</g>
<!-- AddressFormComponent  -->
<g id="node15" class="node">
<title>AddressFormComponent </title>
<polygon fill="#fb8072" stroke="#000000" points="934.5372,-252 773.4628,-252 773.4628,-216 934.5372,-216 934.5372,-252"/>
<text text-anchor="middle" x="854" y="-229.8" font-family="Times,serif" font-size="14.00" fill="#000000">AddressFormComponent </text>
</g>
<!-- CustomerFormModule&#45;&gt;AddressFormComponent  -->
<g id="edge14" class="edge">
<title>CustomerFormModule&#45;&gt;AddressFormComponent </title>
<path fill="none" stroke="#000000" stroke-dasharray="5,2" d="M854,-187.1061C854,-187.1061 854,-205.991 854,-205.991"/>
<polygon fill="#000000" stroke="#000000" points="850.5001,-205.9909 854,-215.991 857.5001,-205.991 850.5001,-205.9909"/>
</g>
<!-- ContactFormComponent  -->
<g id="node16" class="node">
<title>ContactFormComponent </title>
<polygon fill="#fb8072" stroke="#000000" points="755.2135,-252 596.7865,-252 596.7865,-216 755.2135,-216 755.2135,-252"/>
<text text-anchor="middle" x="676" y="-229.8" font-family="Times,serif" font-size="14.00" fill="#000000">ContactFormComponent </text>
</g>
<!-- CustomerFormModule&#45;&gt;ContactFormComponent  -->
<g id="edge15" class="edge">
<title>CustomerFormModule&#45;&gt;ContactFormComponent </title>
<path fill="none" stroke="#000000" stroke-dasharray="5,2" d="M781.8303,-183C724.0179,-183 652.5203,-183 652.5203,-183 652.5203,-183 652.5203,-205.8757 652.5203,-205.8757"/>
<polygon fill="#000000" stroke="#000000" points="649.0204,-205.8757 652.5203,-215.8757 656.0204,-205.8757 649.0204,-205.8757"/>
</g>
<!-- BranchesFormComponent  -->
<g id="node17" class="node">
<title>BranchesFormComponent </title>
<polygon fill="#fb8072" stroke="#000000" points="578.752,-252 411.248,-252 411.248,-216 578.752,-216 578.752,-252"/>
<text text-anchor="middle" x="495" y="-229.8" font-family="Times,serif" font-size="14.00" fill="#000000">BranchesFormComponent </text>
</g>
<!-- CustomerFormModule&#45;&gt;BranchesFormComponent  -->
<g id="edge16" class="edge">
<title>CustomerFormModule&#45;&gt;BranchesFormComponent </title>
<path fill="none" stroke="#000000" stroke-dasharray="5,2" d="M781.5345,-179C671.7296,-179 475.8407,-179 475.8407,-179 475.8407,-179 475.8407,-205.9909 475.8407,-205.9909"/>
<polygon fill="#000000" stroke="#000000" points="472.3408,-205.9909 475.8407,-215.9909 479.3408,-205.991 472.3408,-205.9909"/>
</g>
<!-- CustomerEditComponent  -->
<g id="node18" class="node">
<title>CustomerEditComponent </title>
<polygon fill="#fb8072" stroke="#000000" points="393.1043,-252 230.8957,-252 230.8957,-216 393.1043,-216 393.1043,-252"/>
<text text-anchor="middle" x="312" y="-229.8" font-family="Times,serif" font-size="14.00" fill="#000000">CustomerEditComponent </text>
</g>
<!-- CustomerFormModule&#45;&gt;CustomerEditComponent  -->
<g id="edge17" class="edge">
<title>CustomerFormModule&#45;&gt;CustomerEditComponent </title>
<path fill="none" stroke="#000000" stroke-dasharray="5,2" d="M781.5863,-175C636.3374,-175 323.2114,-175 323.2114,-175 323.2114,-175 323.2114,-205.9775 323.2114,-205.9775"/>
<polygon fill="#000000" stroke="#000000" points="319.7115,-205.9774 323.2114,-215.9775 326.7115,-205.9775 319.7115,-205.9774"/>
</g>
<!-- CommonModule -->
<g id="node10" class="node">
<title>CommonModule</title>
<polygon fill="#8dd3c7" stroke="#000000" points="399.6681,-122 396.6681,-126 375.6681,-126 372.6681,-122 288.3319,-122 288.3319,-86 399.6681,-86 399.6681,-122"/>
<text text-anchor="middle" x="344" y="-99.8" font-family="Times,serif" font-size="14.00" fill="#000000">CommonModule</text>
</g>
<!-- CommonModule&#45;&gt;CustomerFormModule -->
<g id="edge9" class="edge">
<title>CommonModule&#45;&gt;CustomerFormModule</title>
<path fill="none" stroke="#000000" d="M358.2567,-122.0225C358.2567,-139.3734 358.2567,-163 358.2567,-163 358.2567,-163 771.6494,-163 771.6494,-163"/>
<polygon fill="#000000" stroke="#000000" points="771.6494,-166.5001 781.6494,-163 771.6494,-159.5001 771.6494,-166.5001"/>
</g>
<!-- CoreModule -->
<g id="node11" class="node">
<title>CoreModule</title>
<polygon fill="#8dd3c7" stroke="#000000" points="270.2619,-122 267.2619,-126 246.2619,-126 243.2619,-122 183.7381,-122 183.7381,-86 270.2619,-86 270.2619,-122"/>
<text text-anchor="middle" x="227" y="-99.8" font-family="Times,serif" font-size="14.00" fill="#000000">CoreModule</text>
</g>
<!-- CoreModule&#45;&gt;CustomerFormModule -->
<g id="edge10" class="edge">
<title>CoreModule&#45;&gt;CustomerFormModule</title>
<path fill="none" stroke="#000000" d="M250.5395,-122.2222C250.5395,-140.8285 250.5395,-167 250.5395,-167 250.5395,-167 771.808,-167 771.808,-167"/>
<polygon fill="#000000" stroke="#000000" points="771.808,-170.5001 781.808,-167 771.8079,-163.5001 771.808,-170.5001"/>
</g>
<!-- GroupsService -->
<g id="node19" class="node">
<title>GroupsService</title>
<ellipse fill="#fdb462" stroke="#000000" cx="92" cy="-104" rx="68.3382" ry="18"/>
<text text-anchor="middle" x="92" y="-99.8" font-family="Times,serif" font-size="14.00" fill="#000000">GroupsService</text>
</g>
<!-- GroupsService&#45;&gt;CustomerFormModule -->
<g id="edge18" class="edge">
<title>GroupsService&#45;&gt;CustomerFormModule</title>
<path fill="none" stroke="#000000" d="M92,-122.308C92,-142.1455 92,-171 92,-171 92,-171 771.6259,-171 771.6259,-171"/>
<polygon fill="#000000" stroke="#000000" points="771.6259,-174.5001 781.6259,-171 771.6259,-167.5001 771.6259,-174.5001"/>
</g>
</g>
</svg>
