<?xml version="1.0" encoding="UTF-8" standalone="no"?>
<!DOCTYPE svg PUBLIC "-//W3C//DTD SVG 1.1//EN"
 "http://www.w3.org/Graphics/SVG/1.1/DTD/svg11.dtd">
<!-- Generated by graphviz version 2.40.1 (20161225.0304)
 -->
<!-- Title: dependencies Pages: 1 -->
<svg width="820pt" height="211pt"
 viewBox="0.00 0.00 820.00 211.00" xmlns="http://www.w3.org/2000/svg" xmlns:xlink="http://www.w3.org/1999/xlink">
<g id="graph0" class="graph" transform="scale(1 1) rotate(0) translate(4 207)">
<title>dependencies</title>
<polygon fill="#ffffff" stroke="transparent" points="-4,4 -4,-207 816,-207 816,4 -4,4"/>
<text text-anchor="start" x="385.0091" y="-42.4" font-family="sans-serif" font-weight="bold" font-size="14.00" fill="#000000">Legend</text>
<polygon fill="#ffffb3" stroke="transparent" points="172,-10 172,-30 192,-30 192,-10 172,-10"/>
<text text-anchor="start" x="195.629" y="-15.4" font-family="sans-serif" font-size="14.00" fill="#000000"> &#160;Declarations</text>
<polygon fill="#8dd3c7" stroke="transparent" points="285,-10 285,-30 305,-30 305,-10 285,-10"/>
<text text-anchor="start" x="308.7251" y="-15.4" font-family="sans-serif" font-size="14.00" fill="#000000"> &#160;Module</text>
<polygon fill="#80b1d3" stroke="transparent" points="371,-10 371,-30 391,-30 391,-10 371,-10"/>
<text text-anchor="start" x="394.7812" y="-15.4" font-family="sans-serif" font-size="14.00" fill="#000000"> &#160;Bootstrap</text>
<polygon fill="#fdb462" stroke="transparent" points="468,-10 468,-30 488,-30 488,-10 468,-10"/>
<text text-anchor="start" x="491.6732" y="-15.4" font-family="sans-serif" font-size="14.00" fill="#000000"> &#160;Providers</text>
<polygon fill="#fb8072" stroke="transparent" points="564,-10 564,-30 584,-30 584,-10 564,-10"/>
<text text-anchor="start" x="587.7258" y="-15.4" font-family="sans-serif" font-size="14.00" fill="#000000"> &#160;Exports</text>
<g id="clust1" class="cluster">
<title>cluster_WarehouseModule</title>
<polygon fill="none" stroke="#000000" stroke-dasharray="1,5" points="8,-70 8,-195 804,-195 804,-70 8,-70"/>
</g>
<g id="clust2" class="cluster">
<title>cluster_WarehouseModule_declarations</title>
<polygon fill="none" stroke="#000000" points="442,-78 442,-130 796,-130 796,-78 442,-78"/>
</g>
<g id="clust5" class="cluster">
<title>cluster_WarehouseModule_imports</title>
<polygon fill="none" stroke="#000000" points="16,-78 16,-130 434,-130 434,-78 16,-78"/>
</g>
<!-- WarehouseComponent -->
<g id="node1" class="node">
<title>WarehouseComponent</title>
<polygon fill="#ffffb3" stroke="#000000" points="788.2963,-122 643.7037,-122 643.7037,-86 788.2963,-86 788.2963,-122"/>
<text text-anchor="middle" x="716" y="-99.8" font-family="Times,serif" font-size="14.00" fill="#000000">WarehouseComponent</text>
</g>
<!-- WarehouseModule -->
<g id="node3" class="node">
<title>WarehouseModule</title>
<polygon fill="#8dd3c7" stroke="#000000" points="431.0144,-187 428.0144,-191 407.0144,-191 404.0144,-187 308.9856,-187 308.9856,-151 431.0144,-151 431.0144,-187"/>
<text text-anchor="middle" x="370" y="-164.8" font-family="Times,serif" font-size="14.00" fill="#000000">WarehouseModule</text>
</g>
<!-- WarehouseComponent&#45;&gt;WarehouseModule -->
<g id="edge1" class="edge">
<title>WarehouseComponent&#45;&gt;WarehouseModule</title>
<path fill="none" stroke="#000000" d="M716,-122.2843C716,-143.3211 716,-175 716,-175 716,-175 441.0614,-175 441.0614,-175"/>
<polygon fill="#000000" stroke="#000000" points="441.0614,-171.5001 431.0614,-175 441.0614,-178.5001 441.0614,-171.5001"/>
</g>
<!-- WarehouseIndexComponent -->
<g id="node2" class="node">
<title>WarehouseIndexComponent</title>
<polygon fill="#ffffb3" stroke="#000000" points="626.1713,-122 449.8287,-122 449.8287,-86 626.1713,-86 626.1713,-122"/>
<text text-anchor="middle" x="538" y="-99.8" font-family="Times,serif" font-size="14.00" fill="#000000">WarehouseIndexComponent</text>
</g>
<!-- WarehouseIndexComponent&#45;&gt;WarehouseModule -->
<g id="edge2" class="edge">
<title>WarehouseIndexComponent&#45;&gt;WarehouseModule</title>
<path fill="none" stroke="#000000" d="M538,-122.0225C538,-139.3734 538,-163 538,-163 538,-163 441.1271,-163 441.1271,-163"/>
<polygon fill="#000000" stroke="#000000" points="441.1271,-159.5001 431.1271,-163 441.1271,-166.5001 441.1271,-159.5001"/>
</g>
<!-- CommonModule -->
<g id="node4" class="node">
<title>CommonModule</title>
<polygon fill="#8dd3c7" stroke="#000000" points="425.6681,-122 422.6681,-126 401.6681,-126 398.6681,-122 314.3319,-122 314.3319,-86 425.6681,-86 425.6681,-122"/>
<text text-anchor="middle" x="370" y="-99.8" font-family="Times,serif" font-size="14.00" fill="#000000">CommonModule</text>
</g>
<!-- CommonModule&#45;&gt;WarehouseModule -->
<g id="edge3" class="edge">
<title>CommonModule&#45;&gt;WarehouseModule</title>
<path fill="none" stroke="#000000" d="M370,-122.1061C370,-122.1061 370,-140.991 370,-140.991"/>
<polygon fill="#000000" stroke="#000000" points="366.5001,-140.9909 370,-150.991 373.5001,-140.991 366.5001,-140.9909"/>
</g>
<!-- CoreModule -->
<g id="node5" class="node">
<title>CoreModule</title>
<polygon fill="#8dd3c7" stroke="#000000" points="296.2619,-122 293.2619,-126 272.2619,-126 269.2619,-122 209.7381,-122 209.7381,-86 296.2619,-86 296.2619,-122"/>
<text text-anchor="middle" x="253" y="-99.8" font-family="Times,serif" font-size="14.00" fill="#000000">CoreModule</text>
</g>
<!-- CoreModule&#45;&gt;WarehouseModule -->
<g id="edge4" class="edge">
<title>CoreModule&#45;&gt;WarehouseModule</title>
<path fill="none" stroke="#000000" d="M253,-122.0225C253,-139.3734 253,-163 253,-163 253,-163 298.7587,-163 298.7587,-163"/>
<polygon fill="#000000" stroke="#000000" points="298.7587,-166.5001 308.7587,-163 298.7587,-159.5001 298.7587,-166.5001"/>
</g>
<!-- WarehouseRoutingModule -->
<g id="node6" class="node">
<title>WarehouseRoutingModule</title>
<polygon fill="#8dd3c7" stroke="#000000" points="191.6316,-122 188.6316,-126 167.6316,-126 164.6316,-122 24.3684,-122 24.3684,-86 191.6316,-86 191.6316,-122"/>
<text text-anchor="middle" x="108" y="-99.8" font-family="Times,serif" font-size="14.00" fill="#000000">WarehouseRoutingModule</text>
</g>
<!-- WarehouseRoutingModule&#45;&gt;WarehouseModule -->
<g id="edge5" class="edge">
<title>WarehouseRoutingModule&#45;&gt;WarehouseModule</title>
<path fill="none" stroke="#000000" d="M108,-122.2843C108,-143.3211 108,-175 108,-175 108,-175 298.9033,-175 298.9033,-175"/>
<polygon fill="#000000" stroke="#000000" points="298.9033,-178.5001 308.9033,-175 298.9033,-171.5001 298.9033,-178.5001"/>
</g>
</g>
</svg>
