<?xml version="1.0" encoding="UTF-8" standalone="no"?>
<!DOCTYPE svg PUBLIC "-//W3C//DTD SVG 1.1//EN"
 "http://www.w3.org/Graphics/SVG/1.1/DTD/svg11.dtd">
<!-- Generated by graphviz version 2.40.1 (20161225.0304)
 -->
<!-- Title: dependencies Pages: 1 -->
<svg width="2563pt" height="284pt"
 viewBox="0.00 0.00 2563.00 284.00" xmlns="http://www.w3.org/2000/svg" xmlns:xlink="http://www.w3.org/1999/xlink">
<g id="graph0" class="graph" transform="scale(1 1) rotate(0) translate(4 280)">
<title>dependencies</title>
<polygon fill="#ffffff" stroke="transparent" points="-4,4 -4,-280 2559,-280 2559,4 -4,4"/>
<text text-anchor="start" x="1256.5091" y="-42.4" font-family="sans-serif" font-weight="bold" font-size="14.00" fill="#000000">Legend</text>
<polygon fill="#ffffb3" stroke="transparent" points="1043.5,-10 1043.5,-30 1063.5,-30 1063.5,-10 1043.5,-10"/>
<text text-anchor="start" x="1067.129" y="-15.4" font-family="sans-serif" font-size="14.00" fill="#000000"> &#160;Declarations</text>
<polygon fill="#8dd3c7" stroke="transparent" points="1156.5,-10 1156.5,-30 1176.5,-30 1176.5,-10 1156.5,-10"/>
<text text-anchor="start" x="1180.2251" y="-15.4" font-family="sans-serif" font-size="14.00" fill="#000000"> &#160;Module</text>
<polygon fill="#80b1d3" stroke="transparent" points="1242.5,-10 1242.5,-30 1262.5,-30 1262.5,-10 1242.5,-10"/>
<text text-anchor="start" x="1266.2812" y="-15.4" font-family="sans-serif" font-size="14.00" fill="#000000"> &#160;Bootstrap</text>
<polygon fill="#fdb462" stroke="transparent" points="1339.5,-10 1339.5,-30 1359.5,-30 1359.5,-10 1339.5,-10"/>
<text text-anchor="start" x="1363.1732" y="-15.4" font-family="sans-serif" font-size="14.00" fill="#000000"> &#160;Providers</text>
<polygon fill="#fb8072" stroke="transparent" points="1435.5,-10 1435.5,-30 1455.5,-30 1455.5,-10 1435.5,-10"/>
<text text-anchor="start" x="1459.2258" y="-15.4" font-family="sans-serif" font-size="14.00" fill="#000000"> &#160;Exports</text>
<g id="clust1" class="cluster">
<title>cluster_AppModule</title>
<polygon fill="none" stroke="#000000" stroke-dasharray="1,5" points="8,-70 8,-268 2547,-268 2547,-70 8,-70"/>
</g>
<g id="clust2" class="cluster">
<title>cluster_AppModule_declarations</title>
<polygon fill="none" stroke="#000000" points="2417,-78 2417,-130 2539,-130 2539,-78 2417,-78"/>
</g>
<g id="clust4" class="cluster">
<title>cluster_AppModule_imports</title>
<polygon fill="none" stroke="#000000" points="1262,-78 1262,-130 2409,-130 2409,-78 1262,-78"/>
</g>
<g id="clust6" class="cluster">
<title>cluster_AppModule_bootstrap</title>
<polygon fill="none" stroke="#000000" points="1783,-208 1783,-260 1907,-260 1907,-208 1783,-208"/>
</g>
<g id="clust7" class="cluster">
<title>cluster_AppModule_providers</title>
<polygon fill="none" stroke="#000000" points="16,-78 16,-130 1254,-130 1254,-78 16,-78"/>
</g>
<!-- AppComponent -->
<g id="node1" class="node">
<title>AppComponent</title>
<polygon fill="#ffffb3" stroke="#000000" points="2530.9399,-122 2425.0601,-122 2425.0601,-86 2530.9399,-86 2530.9399,-122"/>
<text text-anchor="middle" x="2478" y="-99.8" font-family="Times,serif" font-size="14.00" fill="#000000">AppComponent</text>
</g>
<!-- AppModule -->
<g id="node2" class="node">
<title>AppModule</title>
<polygon fill="#8dd3c7" stroke="#000000" points="1886.6571,-187 1883.6571,-191 1862.6571,-191 1859.6571,-187 1803.3429,-187 1803.3429,-151 1886.6571,-151 1886.6571,-187"/>
<text text-anchor="middle" x="1845" y="-164.8" font-family="Times,serif" font-size="14.00" fill="#000000">AppModule</text>
</g>
<!-- AppComponent&#45;&gt;AppModule -->
<g id="edge1" class="edge">
<title>AppComponent&#45;&gt;AppModule</title>
<path fill="none" stroke="#000000" d="M2478,-122.0109C2478,-144.4852 2478,-180 2478,-180 2478,-180 1897.0231,-180 1897.0231,-180"/>
<polygon fill="#000000" stroke="#000000" points="1897.0232,-176.5001 1887.0231,-180 1897.0231,-183.5001 1897.0232,-176.5001"/>
</g>
<!-- AppComponent  -->
<g id="node10" class="node">
<title>AppComponent </title>
<polygon fill="#80b1d3" stroke="#000000" points="1899.439,-252 1790.561,-252 1790.561,-216 1899.439,-216 1899.439,-252"/>
<text text-anchor="middle" x="1845" y="-229.8" font-family="Times,serif" font-size="14.00" fill="#000000">AppComponent </text>
</g>
<!-- AppModule&#45;&gt;AppComponent  -->
<g id="edge9" class="edge">
<title>AppModule&#45;&gt;AppComponent </title>
<path fill="none" stroke="#000000" stroke-dasharray="1,5" d="M1845,-187.1061C1845,-187.1061 1845,-205.991 1845,-205.991"/>
<polygon fill="#000000" stroke="#000000" points="1841.5001,-205.9909 1845,-215.991 1848.5001,-205.991 1841.5001,-205.9909"/>
</g>
<!-- BrowserAnimationsModule -->
<g id="node3" class="node">
<title>BrowserAnimationsModule</title>
<polygon fill="#8dd3c7" stroke="#000000" points="2401.3019,-122 2398.3019,-126 2377.3019,-126 2374.3019,-122 2228.6981,-122 2228.6981,-86 2401.3019,-86 2401.3019,-122"/>
<text text-anchor="middle" x="2315" y="-99.8" font-family="Times,serif" font-size="14.00" fill="#000000">BrowserAnimationsModule</text>
</g>
<!-- BrowserAnimationsModule&#45;&gt;AppModule -->
<g id="edge2" class="edge">
<title>BrowserAnimationsModule&#45;&gt;AppModule</title>
<path fill="none" stroke="#000000" d="M2315,-122.1289C2315,-142.5724 2315,-173 2315,-173 2315,-173 1896.7094,-173 1896.7094,-173"/>
<polygon fill="#000000" stroke="#000000" points="1896.7094,-169.5001 1886.7094,-173 1896.7093,-176.5001 1896.7094,-169.5001"/>
</g>
<!-- AppRoutingModule -->
<g id="node4" class="node">
<title>AppRoutingModule</title>
<polygon fill="#8dd3c7" stroke="#000000" points="2210.2744,-122 2207.2744,-126 2186.2744,-126 2183.2744,-122 2081.7256,-122 2081.7256,-86 2210.2744,-86 2210.2744,-122"/>
<text text-anchor="middle" x="2146" y="-99.8" font-family="Times,serif" font-size="14.00" fill="#000000">AppRoutingModule</text>
</g>
<!-- AppRoutingModule&#45;&gt;AppModule -->
<g id="edge3" class="edge">
<title>AppRoutingModule&#45;&gt;AppModule</title>
<path fill="none" stroke="#000000" d="M2146,-122.2667C2146,-140.5552 2146,-166 2146,-166 2146,-166 1896.8528,-166 1896.8528,-166"/>
<polygon fill="#000000" stroke="#000000" points="1896.8528,-162.5001 1886.8528,-166 1896.8527,-169.5001 1896.8528,-162.5001"/>
</g>
<!-- CoreModule -->
<g id="node5" class="node">
<title>CoreModule</title>
<polygon fill="#8dd3c7" stroke="#000000" points="2063.2619,-122 2060.2619,-126 2039.2619,-126 2036.2619,-122 1976.7381,-122 1976.7381,-86 2063.2619,-86 2063.2619,-122"/>
<text text-anchor="middle" x="2020" y="-99.8" font-family="Times,serif" font-size="14.00" fill="#000000">CoreModule</text>
</g>
<!-- CoreModule&#45;&gt;AppModule -->
<g id="edge4" class="edge">
<title>CoreModule&#45;&gt;AppModule</title>
<path fill="none" stroke="#000000" d="M2020,-122.0091C2020,-138.0494 2020,-159 2020,-159 2020,-159 1896.9169,-159 1896.9169,-159"/>
<polygon fill="#000000" stroke="#000000" points="1896.9169,-155.5001 1886.9169,-159 1896.9168,-162.5001 1896.9169,-155.5001"/>
</g>
<!-- SharedModule -->
<g id="node6" class="node">
<title>SharedModule</title>
<polygon fill="#8dd3c7" stroke="#000000" points="1958.4231,-122 1955.4231,-126 1934.4231,-126 1931.4231,-122 1859.5769,-122 1859.5769,-86 1958.4231,-86 1958.4231,-122"/>
<text text-anchor="middle" x="1909" y="-99.8" font-family="Times,serif" font-size="14.00" fill="#000000">SharedModule</text>
</g>
<!-- SharedModule&#45;&gt;AppModule -->
<g id="edge5" class="edge">
<title>SharedModule&#45;&gt;AppModule</title>
<path fill="none" stroke="#000000" d="M1873.3086,-122.1061C1873.3086,-122.1061 1873.3086,-140.991 1873.3086,-140.991"/>
<polygon fill="#000000" stroke="#000000" points="1869.8086,-140.9909 1873.3086,-150.991 1876.8086,-140.991 1869.8086,-140.9909"/>
</g>
<!-- HttpClientModule -->
<g id="node7" class="node">
<title>HttpClientModule</title>
<polygon fill="#8dd3c7" stroke="#000000" points="1841.1611,-122 1838.1611,-126 1817.1611,-126 1814.1611,-122 1722.8389,-122 1722.8389,-86 1841.1611,-86 1841.1611,-122"/>
<text text-anchor="middle" x="1782" y="-99.8" font-family="Times,serif" font-size="14.00" fill="#000000">HttpClientModule</text>
</g>
<!-- HttpClientModule&#45;&gt;AppModule -->
<g id="edge6" class="edge">
<title>HttpClientModule&#45;&gt;AppModule</title>
<path fill="none" stroke="#000000" d="M1822.2511,-122.1061C1822.2511,-122.1061 1822.2511,-140.991 1822.2511,-140.991"/>
<polygon fill="#000000" stroke="#000000" points="1818.7511,-140.9909 1822.2511,-150.991 1825.7511,-140.991 1818.7511,-140.9909"/>
</g>
<!-- AgmCoreModule.forRoot(args) -->
<g id="node8" class="node">
<title>AgmCoreModule.forRoot(args)</title>
<polygon fill="#8dd3c7" stroke="#000000" points="1704.4487,-122 1701.4487,-126 1680.4487,-126 1677.4487,-122 1509.5513,-122 1509.5513,-86 1704.4487,-86 1704.4487,-122"/>
<text text-anchor="middle" x="1607" y="-99.8" font-family="Times,serif" font-size="14.00" fill="#000000">AgmCoreModule.forRoot(args)</text>
</g>
<!-- AgmCoreModule.forRoot(args)&#45;&gt;AppModule -->
<g id="edge7" class="edge">
<title>AgmCoreModule.forRoot(args)&#45;&gt;AppModule</title>
<path fill="none" stroke="#000000" d="M1607,-122.0091C1607,-138.0494 1607,-159 1607,-159 1607,-159 1793.2712,-159 1793.2712,-159"/>
<polygon fill="#000000" stroke="#000000" points="1793.2713,-162.5001 1803.2712,-159 1793.2712,-155.5001 1793.2713,-162.5001"/>
</g>
<!-- ServiceWorkerModule.register(args) -->
<g id="node9" class="node">
<title>ServiceWorkerModule.register(args)</title>
<polygon fill="#8dd3c7" stroke="#000000" points="1492.3954,-122 1489.3954,-126 1468.3954,-126 1465.3954,-122 1269.6046,-122 1269.6046,-86 1492.3954,-86 1492.3954,-122"/>
<text text-anchor="middle" x="1381" y="-99.8" font-family="Times,serif" font-size="14.00" fill="#000000">ServiceWorkerModule.register(args)</text>
</g>
<!-- ServiceWorkerModule.register(args)&#45;&gt;AppModule -->
<g id="edge8" class="edge">
<title>ServiceWorkerModule.register(args)&#45;&gt;AppModule</title>
<path fill="none" stroke="#000000" d="M1381,-122.2667C1381,-140.5552 1381,-166 1381,-166 1381,-166 1793.0047,-166 1793.0047,-166"/>
<polygon fill="#000000" stroke="#000000" points="1793.0048,-169.5001 1803.0047,-166 1793.0047,-162.5001 1793.0048,-169.5001"/>
</g>
<!-- { provide: HTTP_INTERCEPTORS, useClass: SpinnerInterceptor, multi: &#160;} -->
<g id="node11" class="node">
<title>{ provide: HTTP_INTERCEPTORS, useClass: SpinnerInterceptor, multi: &#160;}</title>
<ellipse fill="#fdb462" stroke="#000000" cx="940" cy="-104" rx="305.8864" ry="18"/>
<text text-anchor="middle" x="940" y="-99.8" font-family="Times,serif" font-size="14.00" fill="#000000">{ provide: HTTP_INTERCEPTORS, useClass: SpinnerInterceptor, multi: &#160;}</text>
</g>
<!-- { provide: HTTP_INTERCEPTORS, useClass: SpinnerInterceptor, multi: &#160;}&#45;&gt;AppModule -->
<g id="edge10" class="edge">
<title>{ provide: HTTP_INTERCEPTORS, useClass: SpinnerInterceptor, multi: &#160;}&#45;&gt;AppModule</title>
<path fill="none" stroke="#000000" d="M940,-122.1289C940,-142.5724 940,-173 940,-173 940,-173 1793.165,-173 1793.165,-173"/>
<polygon fill="#000000" stroke="#000000" points="1793.165,-176.5001 1803.165,-173 1793.165,-169.5001 1793.165,-176.5001"/>
</g>
<!-- { provide: HTTP_INTERCEPTORS, useClass: ErrorInterceptor, multi: &#160;} -->
<g id="node12" class="node">
<title>{ provide: HTTP_INTERCEPTORS, useClass: ErrorInterceptor, multi: &#160;}</title>
<ellipse fill="#fdb462" stroke="#000000" cx="320" cy="-104" rx="296.0533" ry="18"/>
<text text-anchor="middle" x="320" y="-99.8" font-family="Times,serif" font-size="14.00" fill="#000000">{ provide: HTTP_INTERCEPTORS, useClass: ErrorInterceptor, multi: &#160;}</text>
</g>
<!-- { provide: HTTP_INTERCEPTORS, useClass: ErrorInterceptor, multi: &#160;}&#45;&gt;AppModule -->
<g id="edge11" class="edge">
<title>{ provide: HTTP_INTERCEPTORS, useClass: ErrorInterceptor, multi: &#160;}&#45;&gt;AppModule</title>
<path fill="none" stroke="#000000" d="M320,-122.0109C320,-144.4852 320,-180 320,-180 320,-180 1793.0209,-180 1793.0209,-180"/>
<polygon fill="#000000" stroke="#000000" points="1793.021,-183.5001 1803.0209,-180 1793.0209,-176.5001 1793.021,-183.5001"/>
</g>
</g>
</svg>
