<?xml version="1.0" encoding="UTF-8" standalone="no"?>
<!DOCTYPE svg PUBLIC "-//W3C//DTD SVG 1.1//EN"
 "http://www.w3.org/Graphics/SVG/1.1/DTD/svg11.dtd">
<!-- Generated by graphviz version 2.40.1 (20161225.0304)
 -->
<!-- Title: dependencies Pages: 1 -->
<svg width="1448pt" height="211pt"
 viewBox="0.00 0.00 1448.00 211.00" xmlns="http://www.w3.org/2000/svg" xmlns:xlink="http://www.w3.org/1999/xlink">
<g id="graph0" class="graph" transform="scale(1 1) rotate(0) translate(4 207)">
<title>dependencies</title>
<polygon fill="#ffffff" stroke="transparent" points="-4,4 -4,-207 1444,-207 1444,4 -4,4"/>
<text text-anchor="start" x="699.0091" y="-42.4" font-family="sans-serif" font-weight="bold" font-size="14.00" fill="#000000">Legend</text>
<polygon fill="#ffffb3" stroke="transparent" points="486,-10 486,-30 506,-30 506,-10 486,-10"/>
<text text-anchor="start" x="509.629" y="-15.4" font-family="sans-serif" font-size="14.00" fill="#000000"> &#160;Declarations</text>
<polygon fill="#8dd3c7" stroke="transparent" points="599,-10 599,-30 619,-30 619,-10 599,-10"/>
<text text-anchor="start" x="622.7251" y="-15.4" font-family="sans-serif" font-size="14.00" fill="#000000"> &#160;Module</text>
<polygon fill="#80b1d3" stroke="transparent" points="685,-10 685,-30 705,-30 705,-10 685,-10"/>
<text text-anchor="start" x="708.7812" y="-15.4" font-family="sans-serif" font-size="14.00" fill="#000000"> &#160;Bootstrap</text>
<polygon fill="#fdb462" stroke="transparent" points="782,-10 782,-30 802,-30 802,-10 782,-10"/>
<text text-anchor="start" x="805.6732" y="-15.4" font-family="sans-serif" font-size="14.00" fill="#000000"> &#160;Providers</text>
<polygon fill="#fb8072" stroke="transparent" points="878,-10 878,-30 898,-30 898,-10 878,-10"/>
<text text-anchor="start" x="901.7258" y="-15.4" font-family="sans-serif" font-size="14.00" fill="#000000"> &#160;Exports</text>
<g id="clust1" class="cluster">
<title>cluster_CustomersModule</title>
<polygon fill="none" stroke="#000000" stroke-dasharray="1,5" points="8,-70 8,-195 1432,-195 1432,-70 8,-70"/>
</g>
<g id="clust2" class="cluster">
<title>cluster_CustomersModule_declarations</title>
<polygon fill="none" stroke="#000000" points="718,-78 718,-130 1424,-130 1424,-78 718,-78"/>
</g>
<g id="clust7" class="cluster">
<title>cluster_CustomersModule_imports</title>
<polygon fill="none" stroke="#000000" points="16,-78 16,-130 710,-130 710,-78 16,-78"/>
</g>
<!-- CustomersComponent -->
<g id="node1" class="node">
<title>CustomersComponent</title>
<polygon fill="#ffffb3" stroke="#000000" points="1415.7148,-122 1274.2852,-122 1274.2852,-86 1415.7148,-86 1415.7148,-122"/>
<text text-anchor="middle" x="1345" y="-99.8" font-family="Times,serif" font-size="14.00" fill="#000000">CustomersComponent</text>
</g>
<!-- CustomersModule -->
<g id="node5" class="node">
<title>CustomersModule</title>
<polygon fill="#8dd3c7" stroke="#000000" points="705.9328,-187 702.9328,-191 681.9328,-191 678.9328,-187 586.0672,-187 586.0672,-151 705.9328,-151 705.9328,-187"/>
<text text-anchor="middle" x="646" y="-164.8" font-family="Times,serif" font-size="14.00" fill="#000000">CustomersModule</text>
</g>
<!-- CustomersComponent&#45;&gt;CustomersModule -->
<g id="edge1" class="edge">
<title>CustomersComponent&#45;&gt;CustomersModule</title>
<path fill="none" stroke="#000000" d="M1345,-122.0109C1345,-144.4852 1345,-180 1345,-180 1345,-180 715.8985,-180 715.8985,-180"/>
<polygon fill="#000000" stroke="#000000" points="715.8986,-176.5001 705.8985,-180 715.8985,-183.5001 715.8986,-176.5001"/>
</g>
<!-- CustomerEditComponent -->
<g id="node2" class="node">
<title>CustomerEditComponent</title>
<polygon fill="#ffffb3" stroke="#000000" points="1256.6038,-122 1097.3962,-122 1097.3962,-86 1256.6038,-86 1256.6038,-122"/>
<text text-anchor="middle" x="1177" y="-99.8" font-family="Times,serif" font-size="14.00" fill="#000000">CustomerEditComponent</text>
</g>
<!-- CustomerEditComponent&#45;&gt;CustomersModule -->
<g id="edge2" class="edge">
<title>CustomerEditComponent&#45;&gt;CustomersModule</title>
<path fill="none" stroke="#000000" d="M1177,-122.1289C1177,-142.5724 1177,-173 1177,-173 1177,-173 715.8803,-173 715.8803,-173"/>
<polygon fill="#000000" stroke="#000000" points="715.8803,-169.5001 705.8803,-173 715.8802,-176.5001 715.8803,-169.5001"/>
</g>
<!-- CustomersIndexComponent -->
<g id="node3" class="node">
<title>CustomersIndexComponent</title>
<polygon fill="#ffffb3" stroke="#000000" points="1079.5898,-122 906.4102,-122 906.4102,-86 1079.5898,-86 1079.5898,-122"/>
<text text-anchor="middle" x="993" y="-99.8" font-family="Times,serif" font-size="14.00" fill="#000000">CustomersIndexComponent</text>
</g>
<!-- CustomersIndexComponent&#45;&gt;CustomersModule -->
<g id="edge3" class="edge">
<title>CustomersIndexComponent&#45;&gt;CustomersModule</title>
<path fill="none" stroke="#000000" d="M993,-122.2667C993,-140.5552 993,-166 993,-166 993,-166 716.0466,-166 716.0466,-166"/>
<polygon fill="#000000" stroke="#000000" points="716.0467,-162.5001 706.0466,-166 716.0466,-169.5001 716.0467,-162.5001"/>
</g>
<!-- CustomersListComponent -->
<g id="node4" class="node">
<title>CustomersListComponent</title>
<polygon fill="#ffffb3" stroke="#000000" points="888.493,-122 725.507,-122 725.507,-86 888.493,-86 888.493,-122"/>
<text text-anchor="middle" x="807" y="-99.8" font-family="Times,serif" font-size="14.00" fill="#000000">CustomersListComponent</text>
</g>
<!-- CustomersListComponent&#45;&gt;CustomersModule -->
<g id="edge4" class="edge">
<title>CustomersListComponent&#45;&gt;CustomersModule</title>
<path fill="none" stroke="#000000" d="M807,-122.0091C807,-138.0494 807,-159 807,-159 807,-159 715.9505,-159 715.9505,-159"/>
<polygon fill="#000000" stroke="#000000" points="715.9505,-155.5001 705.9505,-159 715.9504,-162.5001 715.9505,-155.5001"/>
</g>
<!-- CommonModule -->
<g id="node6" class="node">
<title>CommonModule</title>
<polygon fill="#8dd3c7" stroke="#000000" points="701.6681,-122 698.6681,-126 677.6681,-126 674.6681,-122 590.3319,-122 590.3319,-86 701.6681,-86 701.6681,-122"/>
<text text-anchor="middle" x="646" y="-99.8" font-family="Times,serif" font-size="14.00" fill="#000000">CommonModule</text>
</g>
<!-- CommonModule&#45;&gt;CustomersModule -->
<g id="edge5" class="edge">
<title>CommonModule&#45;&gt;CustomersModule</title>
<path fill="none" stroke="#000000" d="M646,-122.1061C646,-122.1061 646,-140.991 646,-140.991"/>
<polygon fill="#000000" stroke="#000000" points="642.5001,-140.9909 646,-150.991 649.5001,-140.991 642.5001,-140.9909"/>
</g>
<!-- CustomersRoutingModule -->
<g id="node7" class="node">
<title>CustomersRoutingModule</title>
<polygon fill="#8dd3c7" stroke="#000000" points="572.0504,-122 569.0504,-126 548.0504,-126 545.0504,-122 407.9496,-122 407.9496,-86 572.0504,-86 572.0504,-122"/>
<text text-anchor="middle" x="490" y="-99.8" font-family="Times,serif" font-size="14.00" fill="#000000">CustomersRoutingModule</text>
</g>
<!-- CustomersRoutingModule&#45;&gt;CustomersModule -->
<g id="edge6" class="edge">
<title>CustomersRoutingModule&#45;&gt;CustomersModule</title>
<path fill="none" stroke="#000000" d="M490,-122.0091C490,-138.0494 490,-159 490,-159 490,-159 576.1325,-159 576.1325,-159"/>
<polygon fill="#000000" stroke="#000000" points="576.1325,-162.5001 586.1325,-159 576.1324,-155.5001 576.1325,-162.5001"/>
</g>
<!-- CoreModule -->
<g id="node8" class="node">
<title>CoreModule</title>
<polygon fill="#8dd3c7" stroke="#000000" points="389.2619,-122 386.2619,-126 365.2619,-126 362.2619,-122 302.7381,-122 302.7381,-86 389.2619,-86 389.2619,-122"/>
<text text-anchor="middle" x="346" y="-99.8" font-family="Times,serif" font-size="14.00" fill="#000000">CoreModule</text>
</g>
<!-- CoreModule&#45;&gt;CustomersModule -->
<g id="edge7" class="edge">
<title>CoreModule&#45;&gt;CustomersModule</title>
<path fill="none" stroke="#000000" d="M346,-122.2667C346,-140.5552 346,-166 346,-166 346,-166 576.0116,-166 576.0116,-166"/>
<polygon fill="#000000" stroke="#000000" points="576.0116,-169.5001 586.0116,-166 576.0115,-162.5001 576.0116,-169.5001"/>
</g>
<!-- SharedModule -->
<g id="node9" class="node">
<title>SharedModule</title>
<polygon fill="#8dd3c7" stroke="#000000" points="284.4231,-122 281.4231,-126 260.4231,-126 257.4231,-122 185.5769,-122 185.5769,-86 284.4231,-86 284.4231,-122"/>
<text text-anchor="middle" x="235" y="-99.8" font-family="Times,serif" font-size="14.00" fill="#000000">SharedModule</text>
</g>
<!-- SharedModule&#45;&gt;CustomersModule -->
<g id="edge8" class="edge">
<title>SharedModule&#45;&gt;CustomersModule</title>
<path fill="none" stroke="#000000" d="M235,-122.1289C235,-142.5724 235,-173 235,-173 235,-173 576.2371,-173 576.2371,-173"/>
<polygon fill="#000000" stroke="#000000" points="576.2371,-176.5001 586.2371,-173 576.237,-169.5001 576.2371,-176.5001"/>
</g>
<!-- CustomerFormModule -->
<g id="node10" class="node">
<title>CustomerFormModule</title>
<polygon fill="#8dd3c7" stroke="#000000" points="168.3216,-122 165.3216,-126 144.3216,-126 141.3216,-122 23.6784,-122 23.6784,-86 168.3216,-86 168.3216,-122"/>
<text text-anchor="middle" x="96" y="-99.8" font-family="Times,serif" font-size="14.00" fill="#000000">CustomerFormModule</text>
</g>
<!-- CustomerFormModule&#45;&gt;CustomersModule -->
<g id="edge9" class="edge">
<title>CustomerFormModule&#45;&gt;CustomersModule</title>
<path fill="none" stroke="#000000" d="M96,-122.0109C96,-144.4852 96,-180 96,-180 96,-180 576.0934,-180 576.0934,-180"/>
<polygon fill="#000000" stroke="#000000" points="576.0934,-183.5001 586.0934,-180 576.0933,-176.5001 576.0934,-183.5001"/>
</g>
</g>
</svg>
