<?xml version="1.0" encoding="UTF-8" standalone="no"?>
<!DOCTYPE svg PUBLIC "-//W3C//DTD SVG 1.1//EN"
 "http://www.w3.org/Graphics/SVG/1.1/DTD/svg11.dtd">
<!-- Generated by graphviz version 2.40.1 (20161225.0304)
 -->
<!-- Title: dependencies Pages: 1 -->
<svg width="923pt" height="284pt"
 viewBox="0.00 0.00 923.00 284.00" xmlns="http://www.w3.org/2000/svg" xmlns:xlink="http://www.w3.org/1999/xlink">
<g id="graph0" class="graph" transform="scale(1 1) rotate(0) translate(4 280)">
<title>dependencies</title>
<polygon fill="#ffffff" stroke="transparent" points="-4,4 -4,-280 919,-280 919,4 -4,4"/>
<text text-anchor="start" x="436.5091" y="-42.4" font-family="sans-serif" font-weight="bold" font-size="14.00" fill="#000000">Legend</text>
<polygon fill="#ffffb3" stroke="transparent" points="223.5,-10 223.5,-30 243.5,-30 243.5,-10 223.5,-10"/>
<text text-anchor="start" x="247.129" y="-15.4" font-family="sans-serif" font-size="14.00" fill="#000000"> &#160;Declarations</text>
<polygon fill="#8dd3c7" stroke="transparent" points="336.5,-10 336.5,-30 356.5,-30 356.5,-10 336.5,-10"/>
<text text-anchor="start" x="360.2251" y="-15.4" font-family="sans-serif" font-size="14.00" fill="#000000"> &#160;Module</text>
<polygon fill="#80b1d3" stroke="transparent" points="422.5,-10 422.5,-30 442.5,-30 442.5,-10 422.5,-10"/>
<text text-anchor="start" x="446.2812" y="-15.4" font-family="sans-serif" font-size="14.00" fill="#000000"> &#160;Bootstrap</text>
<polygon fill="#fdb462" stroke="transparent" points="519.5,-10 519.5,-30 539.5,-30 539.5,-10 519.5,-10"/>
<text text-anchor="start" x="543.1732" y="-15.4" font-family="sans-serif" font-size="14.00" fill="#000000"> &#160;Providers</text>
<polygon fill="#fb8072" stroke="transparent" points="615.5,-10 615.5,-30 635.5,-30 635.5,-10 615.5,-10"/>
<text text-anchor="start" x="639.2258" y="-15.4" font-family="sans-serif" font-size="14.00" fill="#000000"> &#160;Exports</text>
<g id="clust1" class="cluster">
<title>cluster_DeviceFormModule</title>
<polygon fill="none" stroke="#000000" stroke-dasharray="1,5" points="8,-70 8,-268 907,-268 907,-70 8,-70"/>
</g>
<g id="clust2" class="cluster">
<title>cluster_DeviceFormModule_declarations</title>
<polygon fill="none" stroke="#000000" points="373,-78 373,-130 899,-130 899,-78 373,-78"/>
</g>
<g id="clust6" class="cluster">
<title>cluster_DeviceFormModule_imports</title>
<polygon fill="none" stroke="#000000" points="16,-78 16,-130 365,-130 365,-78 16,-78"/>
</g>
<g id="clust7" class="cluster">
<title>cluster_DeviceFormModule_exports</title>
<polygon fill="none" stroke="#000000" points="126,-208 126,-260 662,-260 662,-208 126,-208"/>
</g>
<!-- DevicePropertiesComponent -->
<g id="node1" class="node">
<title>DevicePropertiesComponent</title>
<polygon fill="#ffffb3" stroke="#000000" points="890.7324,-122 713.2676,-122 713.2676,-86 890.7324,-86 890.7324,-122"/>
<text text-anchor="middle" x="802" y="-99.8" font-family="Times,serif" font-size="14.00" fill="#000000">DevicePropertiesComponent</text>
</g>
<!-- DeviceFormModule -->
<g id="node4" class="node">
<title>DeviceFormModule</title>
<polygon fill="#8dd3c7" stroke="#000000" points="441.5255,-187 438.5255,-191 417.5255,-191 414.5255,-187 312.4745,-187 312.4745,-151 441.5255,-151 441.5255,-187"/>
<text text-anchor="middle" x="377" y="-164.8" font-family="Times,serif" font-size="14.00" fill="#000000">DeviceFormModule</text>
</g>
<!-- DevicePropertiesComponent&#45;&gt;DeviceFormModule -->
<g id="edge1" class="edge">
<title>DevicePropertiesComponent&#45;&gt;DeviceFormModule</title>
<path fill="none" stroke="#000000" d="M802,-122.1061C802,-141.3391 802,-169 802,-169 802,-169 451.5484,-169 451.5484,-169"/>
<polygon fill="#000000" stroke="#000000" points="451.5484,-165.5001 441.5484,-169 451.5483,-172.5001 451.5484,-165.5001"/>
</g>
<!-- DeviceFormComponent -->
<g id="node2" class="node">
<title>DeviceFormComponent</title>
<polygon fill="#ffffb3" stroke="#000000" points="694.8075,-122 543.1925,-122 543.1925,-86 694.8075,-86 694.8075,-122"/>
<text text-anchor="middle" x="619" y="-99.8" font-family="Times,serif" font-size="14.00" fill="#000000">DeviceFormComponent</text>
</g>
<!-- DeviceFormComponent&#45;&gt;DeviceFormModule -->
<g id="edge2" class="edge">
<title>DeviceFormComponent&#45;&gt;DeviceFormModule</title>
<path fill="none" stroke="#000000" d="M598.4813,-122.027C598.4813,-138.3976 598.4813,-160 598.4813,-160 598.4813,-160 451.6569,-160 451.6569,-160"/>
<polygon fill="#000000" stroke="#000000" points="451.657,-156.5001 441.6569,-160 451.6569,-163.5001 451.657,-156.5001"/>
</g>
<!-- DeviceEditComponent -->
<g id="node3" class="node">
<title>DeviceEditComponent</title>
<polygon fill="#ffffb3" stroke="#000000" points="525.3075,-122 380.6925,-122 380.6925,-86 525.3075,-86 525.3075,-122"/>
<text text-anchor="middle" x="453" y="-99.8" font-family="Times,serif" font-size="14.00" fill="#000000">DeviceEditComponent</text>
</g>
<!-- DeviceEditComponent&#45;&gt;DeviceFormModule -->
<g id="edge3" class="edge">
<title>DeviceEditComponent&#45;&gt;DeviceFormModule</title>
<path fill="none" stroke="#000000" d="M411.3044,-122.1061C411.3044,-122.1061 411.3044,-140.991 411.3044,-140.991"/>
<polygon fill="#000000" stroke="#000000" points="407.8044,-140.9909 411.3044,-150.991 414.8044,-140.991 407.8044,-140.9909"/>
</g>
<!-- DevicePropertiesComponent  -->
<g id="node8" class="node">
<title>DevicePropertiesComponent </title>
<polygon fill="#fb8072" stroke="#000000" points="653.7323,-252 472.2677,-252 472.2677,-216 653.7323,-216 653.7323,-252"/>
<text text-anchor="middle" x="563" y="-229.8" font-family="Times,serif" font-size="14.00" fill="#000000">DevicePropertiesComponent </text>
</g>
<!-- DeviceFormModule&#45;&gt;DevicePropertiesComponent  -->
<g id="edge7" class="edge">
<title>DeviceFormModule&#45;&gt;DevicePropertiesComponent </title>
<path fill="none" stroke="#000000" stroke-dasharray="5,2" d="M441.8061,-178C470.8865,-178 498.7688,-178 498.7688,-178 498.7688,-178 498.7688,-205.973 498.7688,-205.973"/>
<polygon fill="#000000" stroke="#000000" points="495.2688,-205.973 498.7688,-215.973 502.2688,-205.973 495.2688,-205.973"/>
</g>
<!-- DeviceFormComponent  -->
<g id="node9" class="node">
<title>DeviceFormComponent </title>
<polygon fill="#fb8072" stroke="#000000" points="454.3073,-252 299.6927,-252 299.6927,-216 454.3073,-216 454.3073,-252"/>
<text text-anchor="middle" x="377" y="-229.8" font-family="Times,serif" font-size="14.00" fill="#000000">DeviceFormComponent </text>
</g>
<!-- DeviceFormModule&#45;&gt;DeviceFormComponent  -->
<g id="edge8" class="edge">
<title>DeviceFormModule&#45;&gt;DeviceFormComponent </title>
<path fill="none" stroke="#000000" stroke-dasharray="5,2" d="M377,-187.1061C377,-187.1061 377,-205.991 377,-205.991"/>
<polygon fill="#000000" stroke="#000000" points="373.5001,-205.9909 377,-215.991 380.5001,-205.991 373.5001,-205.9909"/>
</g>
<!-- DeviceEditComponent  -->
<g id="node10" class="node">
<title>DeviceEditComponent </title>
<polygon fill="#fb8072" stroke="#000000" points="281.8073,-252 134.1927,-252 134.1927,-216 281.8073,-216 281.8073,-252"/>
<text text-anchor="middle" x="208" y="-229.8" font-family="Times,serif" font-size="14.00" fill="#000000">DeviceEditComponent </text>
</g>
<!-- DeviceFormModule&#45;&gt;DeviceEditComponent  -->
<g id="edge9" class="edge">
<title>DeviceFormModule&#45;&gt;DeviceEditComponent </title>
<path fill="none" stroke="#000000" stroke-dasharray="5,2" d="M312.3128,-178C286.8318,-178 263.5349,-178 263.5349,-178 263.5349,-178 263.5349,-205.973 263.5349,-205.973"/>
<polygon fill="#000000" stroke="#000000" points="260.035,-205.973 263.5349,-215.973 267.035,-205.973 260.035,-205.973"/>
</g>
<!-- CommonModule -->
<g id="node5" class="node">
<title>CommonModule</title>
<polygon fill="#8dd3c7" stroke="#000000" points="356.6681,-122 353.6681,-126 332.6681,-126 329.6681,-122 245.3319,-122 245.3319,-86 356.6681,-86 356.6681,-122"/>
<text text-anchor="middle" x="301" y="-99.8" font-family="Times,serif" font-size="14.00" fill="#000000">CommonModule</text>
</g>
<!-- CommonModule&#45;&gt;DeviceFormModule -->
<g id="edge4" class="edge">
<title>CommonModule&#45;&gt;DeviceFormModule</title>
<path fill="none" stroke="#000000" d="M334.5358,-122.1061C334.5358,-122.1061 334.5358,-140.991 334.5358,-140.991"/>
<polygon fill="#000000" stroke="#000000" points="331.0358,-140.9909 334.5358,-150.991 338.0358,-140.991 331.0358,-140.9909"/>
</g>
<!-- CoreModule -->
<g id="node6" class="node">
<title>CoreModule</title>
<polygon fill="#8dd3c7" stroke="#000000" points="227.2619,-122 224.2619,-126 203.2619,-126 200.2619,-122 140.7381,-122 140.7381,-86 227.2619,-86 227.2619,-122"/>
<text text-anchor="middle" x="184" y="-99.8" font-family="Times,serif" font-size="14.00" fill="#000000">CoreModule</text>
</g>
<!-- CoreModule&#45;&gt;DeviceFormModule -->
<g id="edge5" class="edge">
<title>CoreModule&#45;&gt;DeviceFormModule</title>
<path fill="none" stroke="#000000" d="M184,-122.027C184,-138.3976 184,-160 184,-160 184,-160 302.4655,-160 302.4655,-160"/>
<polygon fill="#000000" stroke="#000000" points="302.4655,-163.5001 312.4655,-160 302.4654,-156.5001 302.4655,-163.5001"/>
</g>
<!-- SharedModule -->
<g id="node7" class="node">
<title>SharedModule</title>
<polygon fill="#8dd3c7" stroke="#000000" points="122.4231,-122 119.4231,-126 98.4231,-126 95.4231,-122 23.5769,-122 23.5769,-86 122.4231,-86 122.4231,-122"/>
<text text-anchor="middle" x="73" y="-99.8" font-family="Times,serif" font-size="14.00" fill="#000000">SharedModule</text>
</g>
<!-- SharedModule&#45;&gt;DeviceFormModule -->
<g id="edge6" class="edge">
<title>SharedModule&#45;&gt;DeviceFormModule</title>
<path fill="none" stroke="#000000" d="M73,-122.1061C73,-141.3391 73,-169 73,-169 73,-169 302.1572,-169 302.1572,-169"/>
<polygon fill="#000000" stroke="#000000" points="302.1573,-172.5001 312.1572,-169 302.1572,-165.5001 302.1573,-172.5001"/>
</g>
</g>
</svg>
